<?xml version="1.0" standalone="no"?>
<!DOCTYPE svg PUBLIC "-//W3C//DTD SVG 1.1//EN" "http://www.w3.org/Graphics/SVG/1.1/DTD/svg11.dtd" >
<svg xmlns="http://www.w3.org/2000/svg">
<metadata></metadata>
<defs>
<font id="volkswagenregular" horiz-adv-x="534" >
<font-face units-per-em="1000" ascent="800" descent="-200" />
<missing-glyph horiz-adv-x="290" />
<glyph unicode="&#xd;" horiz-adv-x="290" />
<glyph unicode=" "  horiz-adv-x="290" />
<glyph unicode="&#x09;" horiz-adv-x="290" />
<glyph unicode="&#xa0;" horiz-adv-x="290" />
<glyph unicode="!" horiz-adv-x="198" d="M54 30q0 19 12.5 32.5t31.5 13.5q20 0 33 -13t13 -31t-13 -31.5t-32 -13.5q-18 0 -31.5 12.5t-13.5 30.5zM66 237v465q0 14 11 24t22 10q13 0 23 -10t10 -25v-465q0 -14 -9.5 -23.5t-23.5 -9.5q-13 0 -23 10t-10 24z" />
<glyph unicode="&#x22;" horiz-adv-x="273" d="M53 498l19 222h54l-19 -222h-54zM147 498l19 222h54l-19 -222h-54z" />
<glyph unicode="#" horiz-adv-x="612" d="M82 268h101l38 184h-98q-12 0 -16 8t-3 16q4 21 28 21h99l45 206q5 22 29 22q6 -1 12.5 -6.5t3.5 -15.5l-46 -206h118l44 206q5 22 27 22q12 0 16 -7.5t2 -14.5l-45 -206h104q11 0 15 -7t3 -14q0 -9 -8 -16t-19 -7l-104 -1l-39 -184h104q20 0 20 -22q0 -11 -9 -18t-21 -7 h-104l-42 -208q-5 -20 -27 -20q-11 0 -15 7t-3 13l44 211h-118l-44 -211q-5 -23 -26 -20q-20 2 -16 20l41 209h-101q-9 0 -15 7.5t-4 17.5q5 21 29 21zM227 268h118l39 184h-118z" />
<glyph unicode="$" horiz-adv-x="474" d="M212 57v307l-16 7l-37 14l-6 3q-16 6 -29 14.5t-49 40.5t-36 103q0 40 20 78.5t57 64.5t82 35l14 2v52q0 17 18 17q6 0 12 -5t6 -13v-49q33 0 64.5 -8t64.5 -28.5t33 -40.5q0 -8 -9 -21t-24 -13q-3 0 -11 2l-5 3l-10 5l-5 3l-12 8q-17 10 -35 17.5t-35 10.5l-16 3v-244 l35 -13q172 -60 172 -192q0 -57 -34.5 -116.5t-73.5 -78.5t-60 -25.5t-39 -6.5v-44q0 -8 -5 -14.5t-12 -6.5t-13 6t-6 16v42l-32 2q-66 8 -108.5 34t-42.5 48q0 7 4.5 21t27.5 14q7 0 13 -3l5 -3l8 -5l7 -4l11 -8l26 -13q22 -11 39.5 -14.5t41.5 -3.5zM212 665 q-18 -2 -36 -13t-34 -27.5t-22 -33t-6 -37.5q0 -11 4.5 -43t79.5 -67l15 -6zM248 58q35 4 62.5 24.5t46.5 53.5t21.5 54t2.5 28q0 93 -107 126l-21 7l-5 1v-294z" />
<glyph unicode="%" horiz-adv-x="738" d="M40 561q0 70 29.5 107.5t60.5 52t66 14.5q72 0 112.5 -49.5t40.5 -124.5q0 -78 -45 -125t-112 -47q-64 0 -108 48t-44 124zM97 561q0 -43 14.5 -73t37 -43.5t44.5 -13.5q48 0 65 29t19.5 34t8 24.5t5.5 47.5q0 51 -23 87q-27 39 -74 39q-12 0 -21.5 -2t-27 -12.5t-33 -42 t-15.5 -74.5zM207 20l269 698q7 18 25 18q3 0 16 -4.5t13 -23.5q0 -3 -2 -9l-269 -697q-5 -11 -13.5 -15t-14.5 -4q-17 0 -21 10t-4 18q0 6 1 9zM388 154q0 55 23.5 95.5t62 58t74.5 17.5q49 0 88 -27.5t53 -72.5q9 -35 9 -71q0 -79 -43 -125t-112 -46q-68 0 -111.5 47.5 t-43.5 123.5zM445 154q0 -44 14.5 -74t37.5 -43t48 -13q49 0 66 27.5t23 51.5t6 54q0 26 -5.5 48.5t-16.5 40t-30.5 27.5t-44.5 10q-23 0 -46 -12t-37.5 -41.5t-14.5 -75.5z" />
<glyph unicode="&#x26;" horiz-adv-x="676" d="M215 446l-9 11l-20 23q-53 66 -53 122q0 33 19 65t53.5 51t83.5 19q36 0 73 -12t61 -44.5t24 -75.5q0 -45 -21 -75.5t-43 -50t-52 -37.5l-16 -10l180 -216l43 65q29 51 39.5 65t24.5 17q12 3 22 -4t12 -18q3 -16 -6 -37.5t-40 -65.5l-53 -74l106 -126q7 -8 7 -19 q0 -16 -10.5 -24.5t-23.5 -8.5q-15 0 -24 11l-94 111l-17 -21q-90 -104 -203 -104h-13q-19 0 -68.5 8t-101 68.5t-51.5 140.5q0 43 17 85.5t48 78t78 65.5zM273 482l15 9q39 25 55 39.5t25 33.5t9 36q0 26 -18.5 46t-36.5 24t-30 4h-18q-47 -6 -58 -26t-13 -27t-2 -17 q0 -17 7 -32t16 -28t20 -26l25 -31zM256 397l-35 -20q-53 -35 -78 -81t-25 -97q0 -65 45 -107t109 -42q19 0 38.5 4t54.5 20.5t71 62.5l17 23z" />
<glyph unicode="'" horiz-adv-x="179" d="M53 498l19 222h54l-19 -222h-54z" />
<glyph unicode="(" horiz-adv-x="193" d="M54 371q0 44 3 86t11 96l14 88l18 82q17 64 39 64q3 0 17 -6t12 -24v-4l-3 -12l-5 -23l-10 -48q-34 -164 -34 -299t34 -299l10 -48l5 -22l3 -13q2 -22 -11 -27.5t-18 -5.5q-12 0 -21 14t-18 50l-18 81l-14 88q-8 51 -11 93t-3 89z" />
<glyph unicode=")" horiz-adv-x="193" d="M25 -14l3 16l5 22l10 48q17 82 26 156t9 143q0 66 -9 140t-26 159l-10 48l-5 23l-2 12l-1 4q-2 18 12 24t18 6q11 0 20 -14t15.5 -38t9 -36t8.5 -42t8.5 -44t9.5 -62.5t10 -85.5t3 -81q0 -30 -2 -59.5t-7.5 -92t-12.5 -99.5l-18 -84q-9 -39 -12 -53t-9.5 -26.5 t-25.5 -12.5q-11 0 -19 7.5t-8 21.5z" />
<glyph unicode="*" horiz-adv-x="385" d="M86 657l88 -68l-13 115q-2 13 7 22.5t24 9.5t24.5 -9.5t7.5 -22.5l-13 -115l88 68q8 6 18 6q18 0 25.5 -12t7.5 -22q0 -18 -17 -26l-104 -45l101 -43q19 -10 19 -30q0 -8 -7 -19.5t-25 -11.5q-10 0 -19 6l-86 65l11 -111q2 -14 -7 -23.5t-24 -9.5q-31 0 -31 33l12 111 l-87 -65q-8 -6 -18 -6q-18 0 -25 11.5t-7 19.5q0 22 19 30l101 43l-104 45q-17 8 -17 27q0 11 7.5 22t26.5 11q9 0 17 -6z" />
<glyph unicode="+" horiz-adv-x="533" d="M59 368h182v181q0 12 8 20t19 8q10 0 18 -8t8 -19v-182h182q12 0 19 -8t7 -20q0 -11 -8.5 -18.5t-19.5 -7.5h-181v-185q0 -11 -7.5 -18.5t-18.5 -7.5t-19 8t-8 19v185h-183q-26 0 -26 27q0 11 8.5 18.5t19.5 7.5z" />
<glyph unicode="," horiz-adv-x="177" d="M12 -80l59 131q11 21 34 21q8 0 21.5 -7t13.5 -30q0 -8 -3 -14l-61 -132q-9 -20 -33 -20q-7 0 -20.5 6.5t-13.5 30.5q0 6 3 14z" />
<glyph unicode="-" horiz-adv-x="347" d="M68 294h206q14 0 23.5 -9.5t9.5 -22.5t-10 -22.5t-23 -9.5h-205q-11 0 -20 9t-9 23q0 32 28 32z" />
<glyph unicode="." horiz-adv-x="170" d="M40 32q0 18 12.5 31.5t31.5 13.5t32.5 -13t13.5 -32t-13.5 -31.5t-31.5 -12.5q-19 0 -32 13t-13 31z" />
<glyph unicode="/" horiz-adv-x="404" d="M31 28l291 736q5 13 15 18t14 5q17 0 20.5 -10t3.5 -19q0 -8 -2 -12l-292 -739q-6 -13 -14.5 -17.5t-14.5 -4.5q-17 0 -20.5 12.5t-3.5 16.5q0 6 3 14z" />
<glyph unicode="0" horiz-adv-x="533" d="M40 360q0 162 54 256t102 102.5t55.5 9.5t13.5 1q97 0 163 -92.5t66 -266.5v-52q-3 -23 -10.5 -100t-69.5 -152t-147 -75q-96 0 -161.5 94.5t-65.5 274.5zM116 360q0 -54 4.5 -94.5t19.5 -89.5t34 -74.5t41.5 -37.5t47.5 -12q49 0 84 39.5t53 106t18 162.5 q0 98 -18 164.5t-52.5 104.5t-80.5 38q-47 0 -80.5 -37t-51 -85t-17.5 -121q0 -8 -1 -24t-1 -24v-16z" />
<glyph unicode="1" horiz-adv-x="533" d="M145 720h135q14 0 23.5 -10.5t9.5 -27.5v-653q0 -14 -10 -27q-11 -11 -25 -11t-24 10.5t-10 26.5v629h-100q-13 0 -22 9t-9 22q0 32 32 32z" />
<glyph unicode="2" d="M158 63h283q14 0 24.5 -9t10.5 -24q0 -12 -9 -21t-22 -9h-331l-11 1q-35 6 -35 31q0 9 6 20l8 13l151 211l15 22l32 46l26 38l13 21l12 19q26 44 38 76.5t12 55.5q0 18 -9 44t-38.5 45.5t-68.5 19.5q-24 0 -59 -12.5t-56.5 -49t-21.5 -104.5q0 -16 -10 -26.5t-25 -10.5 q-7 0 -22 5.5t-15 38.5q0 8 1 13l4 34l1 6l9 31q35 99 97 120.5t101 21.5q81 0 111 -31.5t35 -37t22.5 -33.5t17.5 -73q0 -38 -20 -84.5t-64 -110.5l-4 -6l-67 -90l-79 -113l-18 -25z" />
<glyph unicode="3" d="M355 385q75 -27 98 -82.5t23 -93.5q0 -54 -37.5 -121t-97.5 -81.5t-87 -14.5q-85 0 -129 45t-55.5 74.5t-11.5 44.5q0 17 8 23.5t15.5 9.5t11.5 3q23 0 34 -34l3 -9l6 -14q33 -78 119 -78h18q14 3 38.5 7.5t54.5 38.5t33 60.5t3 37.5q0 6 -1 14t-9 55t-91 68l-24 4 q-27 3 -34 6t-11.5 14t-4.5 16q0 21 26 29l3 1l23 3q51 8 66 50.5t15 58.5q0 57 -19 93.5t-45.5 44.5t-39.5 8q-34 0 -59.5 -23.5t-33.5 -66.5l-2 -12l-3 -16q-1 -16 -10 -26t-24 -10t-25 11t-10 34q0 18 10.5 59.5t56 77t108.5 35.5q72 0 121.5 -52.5t49.5 -130.5 q0 -17 -6 -57.5t-53 -85.5z" />
<glyph unicode="4" horiz-adv-x="533" d="M45 263l259 435q19 32 55 32q6 0 35 -9t29 -61l3 -404h42q13 0 26 -10q8 -8 8 -21q0 -14 -11.5 -22.5t-26.5 -8.5h-41l2 -167q0 -15 -10 -24q-8 -11 -25 -11q-14 0 -24 10t-10 25v167h-272h-29q-24 5 -24 28q0 19 14 41zM118 257h238v415z" />
<glyph unicode="5" d="M120 422l39 257q5 29 11.5 35t36.5 6h211q14 0 25 -9.5t11 -22.5q0 -12 -11 -21t-24 -9h-194l-33 -215l13 5q35 13 69 13q37 0 81 -18t78.5 -73t34.5 -126q0 -43 -18 -103.5t-74 -104.5t-129 -44q-47 0 -92.5 18.5t-67 37t-29.5 28.5t-10 18q-4 16 4 28t25 14q13 2 21 -4 l18 -16l11 -10q60 -48 117 -48q35 0 66.5 18t51 51t24 63t5 38.5t0.5 12.5q0 17 -5.5 53.5t-44 69t-100.5 32.5q-20 0 -58 -15l-9 -4l-20 -10q-11 -3 -23.5 5t-14.5 20z" />
<glyph unicode="6" d="M172 432q11 8 20 12t33 12t54 8q71 0 123.5 -49.5t60 -97.5t8.5 -60.5t1 -23.5q0 -82 -35 -142t-74.5 -77t-57 -20.5t-40.5 -3.5q-88 0 -145 78.5t-57 211.5q0 88 45 178t137 195l23 25q33 36 43 44t19 8q26 0 31.5 -13t5.5 -20q0 -8 -3 -14l-8 -9l-58 -56 q-14 -13 -32.5 -36.5t-46.5 -66.5t-47 -83zM134 225q0 -82 36 -126t95 -44q60 0 97.5 44.5t37.5 125.5q0 59 -19.5 100.5t-51 59.5t-65.5 18q-33 0 -62 -16t-48.5 -50.5t-19.5 -111.5z" />
<glyph unicode="7" horiz-adv-x="533" d="M91 720h349q18 0 27.5 -9t9.5 -22q0 -5 -4 -15l-279 -663q-9 -21 -32 -21q-7 0 -19.5 5.5t-12.5 27.5q0 4 2 12l264 621h-304q-14 0 -25 10t-11 22t11 22t24 10z" />
<glyph unicode="8" d="M189 407l-19 12q-77 60 -77 145q0 15 12.5 81.5t76.5 76.5t72 10.5t13 0.5h16q10 -2 71.5 -11.5t74 -77t12.5 -82.5q0 -83 -77 -143l-19 -12q56 -14 92.5 -66t36.5 -123v-28q-3 -13 -10.5 -58.5t-63 -94t-133.5 -48.5q-69 0 -118.5 35t-65 78.5t-20 67.5t-4.5 48 q0 70 36.5 122.5t93.5 66.5zM159 554q0 -46 31 -80.5t77 -34.5q48 0 69.5 25.5t30.5 48.5t9 49q0 48 -31 81t-78 33q-48 0 -78 -34t-30 -88zM135 218q0 -51 20.5 -91t50.5 -56.5t61 -16.5t58 14.5t39 33.5t17.5 31t12 36.5t6.5 54.5q0 65 -37.5 105.5t-95.5 40.5 q-59 0 -95.5 -40.5t-36.5 -111.5z" />
<glyph unicode="9" d="M362 286q-7 -4 -19 -10t-24.5 -10.5t-31.5 -7.5t-33 -3q-71 0 -123 50t-59.5 97.5t-8.5 60t-1 24.5q0 56 15.5 100t45 77.5t66 50t76.5 16.5q50 0 96 -26.5t70 -67t32 -88.5t8 -111q0 -87 -45.5 -178t-136.5 -194l-23 -26q-33 -35 -43 -43t-19 -8q-26 0 -31.5 12.5 t-5.5 19.5q0 9 3 14l5 6l12 13l45 46q37 37 72 88.5t58 97.5zM133 489q0 -59 19.5 -98.5t50.5 -57.5t67 -18q32 0 61.5 16.5t43 40t18 44t6.5 41.5t2 39q0 78 -38 123.5t-94 45.5q-60 0 -98 -46.5t-38 -129.5z" />
<glyph unicode=":" horiz-adv-x="185" d="M54 32q0 18 12.5 31.5t31.5 13.5t32.5 -13t13.5 -32t-13.5 -31.5t-31.5 -12.5q-19 0 -32 13t-13 31zM54 376q0 18 13 31t32 13q18 0 32 -13t14 -31q0 -19 -14 -32t-32 -13q-19 0 -32 13t-13 32z" />
<glyph unicode=";" horiz-adv-x="201" d="M71 377q0 19 13.5 31.5t32.5 12.5q18 0 31 -13t13 -32q0 -16 -13 -30t-31 -14q-20 0 -33 13t-13 32zM26 -80l59 131q11 21 34 21q8 0 21.5 -7t13.5 -30q0 -8 -3 -14l-61 -132q-9 -20 -33 -20q-7 0 -20.5 6.5t-13.5 30.5q0 6 3 14z" />
<glyph unicode="&#x3c;" horiz-adv-x="527" d="M53 360l421 239v-62l-321 -177l321 -177v-62z" />
<glyph unicode="=" d="M58 424h416q11 0 19 -7t8 -19q0 -11 -7 -19t-19 -8h-418q-11 0 -19 8t-8 18q0 11 9 19t19 8zM58 309h416q11 0 20 -8t9 -19q0 -10 -8 -18t-20 -8h-418q-11 0 -18.5 7.5t-7.5 18.5q0 12 8.5 19.5t18.5 7.5z" />
<glyph unicode="&#x3e;" horiz-adv-x="527" d="M53 121v62l321 177l-321 177v62l421 -239z" />
<glyph unicode="?" horiz-adv-x="456" d="M168 28q0 18 12.5 31.5t30.5 13.5q20 0 33 -12.5t13 -30.5t-13 -31t-32 -13q-18 0 -31 12t-13 30zM244 363v-128q0 -12 -9 -22t-23 -10q-15 0 -25 9t-10 23v144v15q3 18 20 27l11 4l8 2l11 2l19 3q38 10 60.5 32.5t28 49t5.5 41.5q0 51 -33.5 82.5t-90.5 31.5 q-15 0 -53 -5.5t-59 -52.5l-3 -9l-3 -10l-3 -9q-4 -23 -17.5 -29t-23.5 -3q-28 7 -28 41q0 23 33 83.5t155 60.5q91 0 147 -51.5t56 -130.5q0 -8 -0.5 -15t-8.5 -45t-46 -76t-97 -51z" />
<glyph unicode="@" horiz-adv-x="767" d="M449 231q-6 -20 -31 -49t-72 -29q-23 0 -72.5 23t-49.5 166l4 36q10 64 35 111.5t63 75t75 27.5q57 0 85 -55l5 -11l9 62l48 -1l-39 -218l-14 -90q-1 -7 -1.5 -15t-0.5 -12q0 -18 7.5 -43.5t40.5 -25.5q7 0 19 4.5t23 13.5t30.5 32.5t32 57t17 64t5.5 42.5t1 28 q0 119 -70.5 193.5t-181.5 74.5q-27 0 -93 -10.5t-140.5 -104t-74.5 -219.5q0 -46 20 -126t99 -144t178 -64q42 0 79 10t76 34l50 36q32 27 56 56l23 -26l-26 -29q-59 -60 -124.5 -89.5t-137.5 -29.5q-135 0 -231.5 90.5t-105 169.5t-9 89t-0.5 24q0 129 59.5 210t122.5 118 t103.5 42t52.5 5h19q132 0 217.5 -86.5t85.5 -223.5q0 -26 -10 -92.5t-55.5 -123.5t-76 -61.5t-41.5 -4.5q-38 0 -63 26t-21 62zM277 290q0 -18 3.5 -34.5t15 -40.5t52.5 -24q27 0 44 16t27 34t18.5 42t14 45.5t9.5 45.5l2 11l6 41q3 21 3 38q0 37 -21.5 61t-49.5 24 q-36 0 -61.5 -32t-38.5 -71.5t-17 -64.5t-5.5 -45t-1.5 -46z" />
<glyph unicode="A" horiz-adv-x="612" d="M17 42l237 640q16 45 48 45q12 0 23 -3.5t17.5 -12t14.5 -29.5l238 -640q4 -11 4 -21v-6q-2 -4 -6 -14.5t-26 -10.5q-11 0 -19 7q-8 5 -13 17l-57 145h-345l-56 -145q-4 -10 -12.5 -17t-20.5 -7q-21 0 -29 20q-2 8 -2 13q0 10 4 19zM153 219h306l-153 419z" />
<glyph unicode="B" horiz-adv-x="536" d="M69 34v653q0 33 38 33h147q74 0 127 -42.5t60 -84.5t7 -59q0 -95 -82 -136l-22 -9q39 0 74.5 -22t60 -60.5t24.5 -95.5q0 -19 -8.5 -67t-66.5 -96t-140 -48h-181q-38 0 -38 34zM139 409h91q60 0 103 36t43 90q0 49 -38.5 85.5t-93.5 36.5h-105v-248zM137 62h141 q64 0 109.5 42.5t45.5 104.5q0 60 -45.5 103t-108.5 43h-142v-293z" />
<glyph unicode="C" horiz-adv-x="605" d="M40 351v28t11.5 102.5t94.5 168.5t204 81q48 0 88.5 -13t69 -33t39 -34.5t10.5 -26.5q0 -3 -5.5 -19t-27.5 -16q-11 0 -24 10l-9 8q-27 25 -52 38t-52 17.5t-45 4.5q-87 0 -149.5 -68.5t-71 -143t-8.5 -100.5v-25t11 -80.5t73.5 -133t156.5 -62.5q19 0 53 4.5t77 30.5 l2 2l27 19q20 14 30 14q3 0 17.5 -5t14.5 -31q0 -11 -6 -19.5t-16.5 -17t-31.5 -22t-67.5 -26.5t-99.5 -13q-136 0 -225 97.5t-89 263.5z" />
<glyph unicode="D" horiz-adv-x="632" d="M69 33l1 655q0 21 22 30l12 2h191q27 0 91.5 -11.5t136 -106.5t71.5 -234q0 -63 -22 -153.5t-98 -152.5t-187 -62h-179q-39 0 -39 33zM137 62h146q97 0 157 64t68.5 140t8.5 103q0 101 -42 174t-93.5 94.5t-94.5 21.5h-150v-597z" />
<glyph unicode="E" horiz-adv-x="438" d="M69 39v645q0 15 10.5 25.5t25.5 10.5h250q14 0 23 -9t9 -22q0 -14 -10 -23t-23 -9h-214v-266h204q13 0 23.5 -9t10.5 -23q0 -13 -9.5 -22.5t-22.5 -9.5h-207v-264h227q13 0 22.5 -9t9.5 -23q0 -12 -9 -21.5t-23 -9.5h-262q-35 0 -35 39z" />
<glyph unicode="F" horiz-adv-x="402" d="M69 26v658q0 36 41 36h255q13 0 22 -9t9 -22q0 -14 -9 -23t-24 -9h-223v-267h199q13 0 22.5 -9.5t9.5 -22.5q0 -12 -9.5 -21.5t-22.5 -9.5h-201v-301q0 -14 -9 -24t-24 -10t-25.5 9.5t-10.5 24.5z" />
<glyph unicode="G" horiz-adv-x="679" d="M577 343h-133q-14 0 -23.5 9.5t-9.5 22.5t10.5 22t23.5 9h138q33 0 46.5 -11.5t16.5 -41.5v-39q0 -16 -1.5 -33.5t-13.5 -88.5t-84 -136.5t-182 -65.5q-37 0 -109 15t-135 91t-72 151.5t-9 103.5q0 40 16 133t98.5 169.5t202.5 76.5q22 0 58 -4.5t86 -26.5t73.5 -44 t23.5 -39q-2 -17 -12 -25t-22 -8t-20 7l-4 3l-13 10l-13 10q-35 25 -63 37t-53 16t-44 4q-92 0 -155 -64t-73.5 -131t-11.5 -92t-1 -28q0 -24 7 -89t55.5 -127.5t103 -74.5t86.5 -12q94 0 153 66.5t59 184.5v40z" />
<glyph unicode="H" horiz-adv-x="676" d="M69 25v668q0 13 10 25q12 10 24 10q15 0 24.5 -10.5t9.5 -24.5v-294h402v294q0 14 10.5 24.5t23.5 10.5q12 0 24 -10q10 -12 10 -25v-668q0 -14 -10 -24t-25 -10q-14 0 -23.5 9.5t-9.5 23.5v316h-402v-316q0 -13 -9 -23t-24 -10q-14 0 -24.5 9.5t-10.5 24.5z" />
<glyph unicode="I" horiz-adv-x="206" d="M69 24v668q0 15 10 25t24 10q15 0 24.5 -11t9.5 -24v-668q0 -14 -9 -24t-24 -10q-14 0 -24.5 9.5t-10.5 24.5z" />
<glyph unicode="J" horiz-adv-x="353" d="M215 160v535q0 15 10.5 25t23.5 10q15 0 25 -10.5t10 -24.5v-523l-1 -25q-6 -71 -48.5 -114.5t-106.5 -43.5q-40 0 -79 17t-53.5 30.5t-14.5 26.5q0 31 30 31q9 -1 18 -6l6 -3l3 -2l22 -16l13 -8q27 -14 51 -14q13 0 36 8t39 29.5t16 60.5v17z" />
<glyph unicode="K" horiz-adv-x="555" d="M69 26v669q0 13 9.5 23.5t24.5 10.5q14 0 24 -9t10 -25v-285l338 303q5 5 12.5 9t16.5 4q14 0 22.5 -9.5t8.5 -22.5q0 -16 -11 -24l-324 -289l346 -332q12 -13 13 -25q2 -14 -9 -25t-26 -9q-13 1 -25 13l-361 348v-325q0 -14 -10.5 -24.5t-24.5 -10.5q-13 0 -23.5 9.5 t-10.5 25.5z" />
<glyph unicode="L" horiz-adv-x="365" d="M69 0l11 13l-11 29v651q0 15 11.5 25.5t23.5 10.5q15 0 24.5 -10.5t9.5 -24.5v-630h189q15 0 26.5 -9.5t11.5 -23.5q0 -12 -9.5 -21.5t-24.5 -9.5h-262z" />
<glyph unicode="M" horiz-adv-x="849" d="M40 37l108 644q3 20 17.5 33.5t34.5 13.5q45 5 59 -43l165 -573l166 573q14 48 59 43q20 0 34 -13t17 -34l108 -644l2 -17q0 -12 -10 -20t-25 -8q-4 0 -18 4.5t-17 27.5l-94 631l-189 -639q-6 -20 -16.5 -23.5t-17.5 -3.5q-24 0 -32 27l-189 639l-93 -631 q-5 -24 -18.5 -28t-18.5 -4q-14 0 -23.5 8.5t-9.5 19.5z" />
<glyph unicode="N" horiz-adv-x="672" d="M69 27v668q0 14 11 24.5t25 10.5q19 0 28 -15l402 -597v575q0 14 10 25t24 11t24 -10.5t10 -25.5v-669l-3 -14l-6 -9q-11 -12 -26 -12q-18 0 -28 16l-403 598v-576q0 -14 -9 -24t-24 -10t-25 9t-10 25z" />
<glyph unicode="O" horiz-adv-x="690" d="M40 360q0 167 87.5 268t215.5 101q31 0 101.5 -15.5t138 -112.5t67.5 -241q0 -167 -87.5 -267.5t-217.5 -100.5q-129 0 -217 100.5t-88 267.5zM117 360q0 -145 63 -226.5t161 -81.5q27 0 81.5 12.5t102.5 89.5t48 206q0 128 -48.5 205.5t-102.5 90t-81 12.5 q-98 0 -161 -81.5t-63 -226.5z" />
<glyph unicode="P" horiz-adv-x="525" d="M69 26v658q0 36 45 36h165q86 0 147 -49t70.5 -96.5t10.5 -54.5t1 -22q0 -20 -11 -71.5t-72 -99.5t-148 -48h-140v-253q0 -13 -10 -24t-24 -11q-13 0 -23.5 10.5t-10.5 24.5zM139 341h139q31 0 60.5 12t52.5 34.5t35 51.5t12 60q0 65 -46.5 112.5t-113.5 47.5h-139v-318z " />
<glyph unicode="Q" horiz-adv-x="692" d="M590 134l81 -83q10 -12 10 -24q1 -12 -7.5 -22t-21.5 -10t-23 10l-76 78q-59 -65 -109.5 -76t-66 -13t-35.5 -2q-127 0 -214.5 101t-87.5 267q0 167 87.5 268t215.5 101q31 0 102 -15.5t138 -112t67 -241.5q0 -71 -14 -123t-46 -103zM542 185q21 53 26.5 98.5t5.5 83.5 q0 125 -49.5 201t-103 88t-80.5 12q-98 0 -161 -81.5t-63 -226.5q0 -128 48.5 -205.5t102 -90t78.5 -12.5q100 0 160 78l-69 70q-9 11 -9 23q0 15 11 24.5t21 9.5q12 0 21 -9z" />
<glyph unicode="R" horiz-adv-x="522" d="M69 25v660q0 22 21 32l15 3h167q79 0 135 -42t67.5 -90.5t11.5 -77.5q0 -84 -61.5 -136.5t-164.5 -52.5l-40 3l264 -280q9 -9 9 -22q0 -7 -5.5 -19t-34.5 -12q-4 0 -9 2.5t-10 7.5l-296 324v-301q0 -14 -10 -24t-24 -10q-15 0 -25 10t-10 25zM138 382h145q56 0 94 41 t38 98q0 56 -44 96t-103 40h-130v-275z" />
<glyph unicode="S" horiz-adv-x="474" d="M29 75l1 11q8 25 32 25q7 0 13 -3l5 -3l8 -5l6 -4l12 -8l26 -13q47 -21 89 -21q47 0 83 22t57 64.5t21 77.5q0 86 -116 128l-13 4l-42 15l-25 9q-39 15 -56 24.5t-54 42.5t-37 104q0 41 20 79t66.5 71t127.5 33q36 0 65.5 -9t57.5 -26q34 -23 34 -42q0 -8 -8.5 -20.5 t-23.5 -12.5q-10 0 -27 9l-5 3l-12 8l-11 6q-34 18 -49.5 20t-29.5 2q-38 0 -64 -16q-66 -35 -66 -96q0 -41 26.5 -70.5t90.5 -53.5l46 -18l5 -2q173 -61 173 -190q0 -57 -32 -113.5t-81 -85.5t-111 -29q-49 0 -89.5 9.5t-68.5 26.5t-36 26t-8 21z" />
<glyph unicode="T" horiz-adv-x="426" d="M31 720h363q14 0 23 -9t9 -23q0 -13 -9.5 -22t-23.5 -9h-148v-630q0 -14 -10 -25t-24 -11q-13 0 -23.5 10.5t-10.5 25.5v630h-147q-13 0 -21.5 9.5t-8.5 23.5q0 12 9 21t22 9z" />
<glyph unicode="U" horiz-adv-x="675" d="M69 246v446q0 13 10 25q12 10 24 10q15 0 24.5 -10.5t9.5 -24.5v-448q0 -77 42.5 -128t91 -59t67.5 -8q18 0 67 8t91 58.5t42 128.5v448q0 14 10.5 24.5t24.5 10.5q13 0 23 -11t10 -24v-446q0 -101 -58 -168t-121 -77.5t-89 -10.5t-90 10.5t-121.5 77t-57.5 168.5z" />
<glyph unicode="V" horiz-adv-x="557" d="M77 699l203 -591l199 591q7 20 16.5 24.5t17.5 4.5q24 0 29 -13t5 -22q0 -8 -3 -16l-228 -648q-7 -22 -14.5 -29.5t-23.5 -7.5q-15 0 -22 7.5t-15 29.5l-228 648q-3 9 -3 17q0 4 2.5 13t12 15t20.5 6q8 0 17 -4.5t15 -24.5z" />
<glyph unicode="W" horiz-adv-x="812" d="M94 695l98 -626l179 632q3 11 13.5 19.5t21.5 8.5q18 0 30 -18l4 -10l180 -632l98 626q2 14 11.5 25.5t30.5 7.5q27 -6 27 -34q0 -8 -1 -12l-109 -646q-7 -45 -46 -45q-53 0 -63 37l-162 588l-162 -588q-10 -37 -63 -37q-19 0 -31 12t-16 33l-108 646q-1 4 -1 12 q0 28 26 34q37 7 43 -33z" />
<glyph unicode="X" horiz-adv-x="594" d="M21 46l235 340l-202 289l-5 11q-4 13 3.5 25.5t23.5 16.5q21 3 36 -20l185 -273l186 273q15 23 36 20q13 -3 21 -12t8 -21q0 -3 -2 -9l-6 -11l-202 -289l236 -340q8 -11 8 -24q0 -15 -11 -23.5t-22 -8.5q-17 0 -30 19l-222 323l-222 -323q-13 -19 -30 -19q-11 0 -22 9 t-11 23q0 12 9 24z" />
<glyph unicode="Y" horiz-adv-x="491" d="M70 708l176 -299l176 299q3 7 10 11q13 11 29 8q14 -2 21 -13.5t3 -25.5l-4 -10l-201 -340v-311q0 -25 -13.5 -30.5t-21.5 -5.5q-24 0 -32 22l-2 14v311l-201 340l-4 10q-4 14 3 25.5t22 13.5q15 3 29 -8z" />
<glyph unicode="Z" horiz-adv-x="568" d="M43 66l386 593h-348q-13 0 -22 9t-9 21q0 13 9 22t22 9h357h45l10 -1q30 0 30 -24q0 -9 -4 -16l-11 -19l-391 -598h382q17 0 28 -10q10 -7 10 -21q0 -12 -11 -21.5t-27 -9.5h-402q-36 0 -49.5 13.5t-13.5 28.5q0 12 9 24z" />
<glyph unicode="[" horiz-adv-x="213" d="M54 -1v722l2 11q10 22 29 22h71q13 0 22 -9t9 -21t-9.5 -21t-22.5 -9h-31v-668h31q13 0 22 -9q10 -7 10 -21q0 -10 -9 -20t-22 -10h-71q-19 0 -29 22z" />
<glyph unicode="\" horiz-adv-x="286" d="M53 720h54l126 -720h-54z" />
<glyph unicode="]" horiz-adv-x="213" d="M58 26h32v668h-32q-13 0 -22.5 9t-9.5 22q0 11 9 20t23 9h70q19 0 29 -22l2 -11v-722l-2 -11q-10 -22 -29 -22h-70q-14 0 -23 10t-9 21q0 13 10 20q9 9 22 9z" />
<glyph unicode="^" horiz-adv-x="584" d="M53 176l239 421l239 -421h-62l-177 321l-177 -321h-62z" />
<glyph unicode="_" horiz-adv-x="466" d="M53 -25v25h360v-25h-360z" />
<glyph unicode="`" horiz-adv-x="212" d="M46 697l144 -56q15 -7 19.5 -16.5t4.5 -17.5q0 -24 -21 -30q-6 -3 -14 -3q-6 0 -14 3l-144 55q-13 6 -18.5 16t-5.5 18q0 22 14 27.5t22 5.5q5 0 13 -2z" />
<glyph unicode="a" horiz-adv-x="560" d="M422 466v39q0 16 11 26t26 10q14 0 23 -10t9 -24v-483q0 -15 -9.5 -24.5t-23.5 -9.5q-15 0 -26 11t-11 28v49q-48 -87 -154 -87q-15 0 -24.5 2t-46 8.5t-86 60.5t-60 114t-10.5 94q0 106 53 179t98.5 81t54.5 9.5t21 1.5q46 0 87 -20t68 -55zM113 269q0 -109 46 -164.5 t120 -55.5q72 0 109.5 56t37.5 171q0 60 -8 92t-29 60t-50.5 42.5t-63.5 14.5q-71 0 -105 -43t-45.5 -81.5t-11.5 -91.5z" />
<glyph unicode="b" horiz-adv-x="559" d="M69 25v718q0 15 10 25t26 10q14 0 23.5 -10.5t9.5 -24.5v-286q28 40 70.5 61.5t89.5 21.5q45 0 86.5 -19.5t71.5 -57t46.5 -86.5t16.5 -107q0 -111 -50 -184.5t-101.5 -84.5t-77.5 -11q-50 0 -90 22t-63 60v-47q0 -13 -10.5 -24.5t-24.5 -11.5q-13 0 -23 11t-10 25z M136 263q0 -92 28.5 -141t69 -59.5t61.5 -10.5q63 0 106.5 47.5t43.5 131.5v41v13v11q-2 8 -4 27t-10.5 44.5t-37 69t-104.5 43.5q-56 0 -92 -34.5t-48.5 -74.5t-12.5 -108z" />
<glyph unicode="c" horiz-adv-x="442" d="M40 264q0 125 68 201t169 76q52 0 93.5 -15.5t41.5 -40.5q0 -12 -9.5 -23.5t-25.5 -11.5q-10 0 -18 4l-14 7l-7 3l-12 5q-23 10 -43 10q-10 -1 -16 -1q-58 0 -98.5 -46t-46.5 -91t-6 -56v-17v-21.5t9 -56t52.5 -90.5t97.5 -43q18 0 38 6l19 8l9 4l11 4l15 7q9 4 25 -3 t16 -28q0 -14 -9 -24t-20 -15.5t-36 -14.5t-67 -9q-91 0 -153.5 57.5t-71.5 116t-10 70.5t-1 28z" />
<glyph unicode="d" horiz-adv-x="561" d="M424 453v290q0 14 10 24t24 10q15 0 24.5 -10.5t9.5 -23.5v-717q0 -15 -10 -25t-23 -10q-15 0 -26 12.5t-11 28.5v50q-26 -43 -68.5 -66.5t-91.5 -23.5q-42 0 -81 17.5t-80 64t-50.5 104.5t-10 69t-0.5 18q0 25 9 78t42 101.5t63 63t43.5 19.5t32.5 9t43 4q49 0 88.5 -23 t62.5 -64zM113 260l3 -36q9 -50 25.5 -85.5t51 -59t74.5 -23.5q57 0 94.5 34t50 68.5t12.5 89.5q0 26 -3 59q0 34 -6 54.5t-34 68t-109 47.5q-54 0 -106.5 -48.5t-52.5 -168.5z" />
<glyph unicode="e" horiz-adv-x="531" d="M447 236h-330q0 -25 11.5 -69.5t53 -78.5t100.5 -34q17 0 39.5 4t44.5 15.5t52 38.5l12 11q9 9 25 11q15 2 25 -9t10 -28q0 -15 -17.5 -32.5t-55.5 -39t-73.5 -28.5t-64.5 -7q-92 0 -155 59t-73.5 124.5t-10.5 94.5q0 23 8 78t56 113.5t98.5 70t73.5 11.5q82 0 142 -58 t68.5 -114.5t10 -67t1.5 -23.5q0 -25 -10.5 -33.5t-40.5 -8.5zM116 294h308l-2 17q-6 41 -17.5 70t-30 51.5t-45.5 35t-58 12.5q-36 0 -68 -17.5t-48 -44t-24.5 -50t-12.5 -51.5z" />
<glyph unicode="f" horiz-adv-x="239" d="M31 533h52v147q0 45 26 72t70 27h40q18 0 30 -9t12 -24q0 -13 -9.5 -21t-24.5 -11l-27 2h-9q-38 0 -38 -31v-10l-1 -29v-113h65q13 0 23.5 -9t10.5 -22q0 -10 -8 -20q-11 -9 -24 -9h-66v-447q0 -16 -11 -25q-9 -11 -24 -11q-14 0 -23.5 10.5t-9.5 25.5v447h-54 q-27 0 -27 32q0 12 8 20t19 8z" />
<glyph unicode="g" horiz-adv-x="558" d="M424 457v49q0 16 11 26t22 10q13 0 22.5 -10.5t9.5 -24.5v-494q0 -189 -103 -211.5t-133 -22.5q-43 0 -87.5 14.5t-70 33.5t-32.5 29.5t-7 23.5q0 16 12.5 24t21.5 8q13 0 27 -13l9 -7l14 -10l21 -13q25 -14 48.5 -20t49.5 -6q57 0 101 31t50 56.5t10 46t4 37.5 t-0.5 31.5t-0.5 26.5q-24 -40 -66.5 -63t-93.5 -23q-18 0 -62.5 7.5t-93 62.5t-57 107t-9.5 64.5t-1 30.5q0 65 19 118.5t52.5 90.5t73 54.5t82.5 17.5q48 0 89 -20.5t68 -61.5zM114 260q0 -80 27 -129.5t64 -65t67 -15.5q45 0 82.5 25.5t51.5 58.5t16 50t2 73 q0 102 -26.5 151.5t-66 59t-63.5 9.5q-32 0 -69.5 -19.5t-61 -69.5t-23.5 -128z" />
<glyph unicode="h" horiz-adv-x="542" d="M69 23v718q0 14 11.5 24.5t23.5 10.5q15 0 24 -10t9 -25v-277q33 50 76.5 62t66.5 12q7 0 15.5 -1t50 -7t84.5 -59t43 -136v-312q0 -14 -10 -24t-25 -10q-13 0 -23 10t-10 24v317q0 55 -28 85.5t-54.5 41.5t-52.5 11q-52 0 -92.5 -38.5t-40.5 -96.5v-320 q0 -14 -9.5 -23.5t-23.5 -9.5q-15 0 -25 9t-10 24z" />
<glyph unicode="i" horiz-adv-x="208" d="M70 26v481q0 15 10.5 24.5t25.5 9.5q14 0 23 -10t9 -24v-481q0 -13 -9.5 -24t-24.5 -11q-14 0 -24 11t-10 24zM58 653q0 21 13.5 34.5t32.5 13.5q20 0 33 -14.5t13 -31.5q0 -19 -14 -33t-32 -14q-17 0 -31.5 12.5t-14.5 32.5z" />
<glyph unicode="j" horiz-adv-x="205" d="M69 -182v689q0 16 11 26t23 10q14 0 23.5 -10.5t9.5 -24.5v-690q0 -14 -9.5 -24.5t-24.5 -10.5q-13 0 -23 9.5t-10 25.5zM55 653q0 21 13.5 35t32.5 14q20 0 33 -14.5t13 -32.5q0 -20 -13.5 -33.5t-32.5 -13.5t-32.5 13.5t-13.5 31.5z" />
<glyph unicode="k" horiz-adv-x="456" d="M69 26v719q0 16 11.5 25.5t23.5 9.5q15 0 24 -11t9 -25v-397l228 183q15 12 28 12q11 0 20.5 -10.5t9.5 -21.5q0 -16 -16 -28l-230 -177l263 -254q16 -16 11 -36q-3 -11 -11.5 -17.5t-19.5 -6.5t-17 5l-15 12l-251 250v-232q0 -15 -10 -25t-24 -10t-23 10q-11 9 -11 25z " />
<glyph unicode="l" horiz-adv-x="206" d="M69 27v717q0 13 10 25q12 10 24 10t24 -10q10 -12 10 -25v-715q0 -15 -9.5 -27t-24.5 -12q-13 0 -23.5 10.5t-10.5 26.5z" />
<glyph unicode="m" horiz-adv-x="838" d="M69 25v481q0 15 11 25t23 10q15 0 24.5 -11.5t9.5 -24.5v-32q3 5 6.5 10t17.5 20t43.5 27t65.5 12q16 0 45.5 -6t59.5 -31t45 -62q5 10 13 21.5t38.5 43.5t110.5 32q16 0 62.5 -7.5t85.5 -54.5t39 -124v-328q0 -13 -9 -24t-24 -11q-13 0 -23.5 9.5t-10.5 25.5v329 q0 49 -34 87t-90 38q-47 0 -85.5 -34.5t-38.5 -90.5v-329q0 -15 -9.5 -25t-23.5 -10t-24 11t-10 24v329q0 53 -36 89t-90 36q-52 0 -88 -36t-36 -88v-330q0 -15 -9.5 -25t-25.5 -10q-13 0 -23 10t-10 24z" />
<glyph unicode="n" horiz-adv-x="542" d="M69 23v485q0 14 11.5 24.5t23.5 10.5q15 0 24.5 -11.5t9.5 -24.5v-41q33 50 76.5 62t69.5 12q9 0 55.5 -7t90 -60.5t43.5 -137.5v-312q0 -14 -10 -24t-25 -10q-13 0 -23 10t-10 24v317q0 55 -28 85.5t-54.5 41.5t-52.5 11q-52 0 -92.5 -39.5t-40.5 -95.5v-320 q0 -14 -9.5 -23.5t-23.5 -9.5q-15 0 -25 9t-10 24z" />
<glyph unicode="o" horiz-adv-x="539" d="M40 267l3 45q14 106 77.5 167.5t149.5 61.5q85 0 148.5 -61.5t72 -126t8.5 -87.5q0 -22 -7.5 -78.5t-55 -116t-95 -70.5t-72.5 -11q-86 0 -149.5 62t-76.5 169zM115 267l1 -34q8 -76 39 -120.5t66 -53.5t51 -9q59 0 100.5 47.5t46.5 96t5 58v14.5v12q0 7 -5.5 58 t-46.5 98t-101 47q-15 0 -50 -9t-66 -52.5t-38 -120.5q-2 -8 -2 -17.5v-14.5z" />
<glyph unicode="p" horiz-adv-x="559" d="M69 -185v691q0 13 10 24t24 11q13 0 23.5 -11t10.5 -26v-49q26 41 68.5 63.5t90.5 22.5q44 0 84.5 -18t89.5 -74.5t49 -176.5q0 -27 -2 -47t-8.5 -45.5t-16.5 -49t-32 -57t-68.5 -58t-97.5 -24.5q-47 0 -88 20.5t-69 61.5v-258q0 -14 -10.5 -24.5t-23.5 -10.5 q-12 0 -24 10q-10 12 -10 25zM132 262q0 -101 43 -155t114 -54q63 0 104.5 47t46.5 95.5t6 58t1 19.5q0 31 -11 83.5t-51 89.5t-93 37q-37 0 -77 -22.5t-60.5 -59t-20.5 -100.5z" />
<glyph unicode="q" horiz-adv-x="561" d="M422 459v45q0 15 11 26t26 11q13 0 23 -10t10 -24v-691q0 -13 -9.5 -24.5t-24.5 -11.5q-13 0 -23.5 10.5t-10.5 25.5v262q-27 -41 -69 -63.5t-90 -22.5q-49 0 -92 21.5t-88 84t-45 168.5q0 27 8 81t47.5 103.5t82.5 70t88 20.5q48 0 88 -20.5t68 -61.5zM114 271l2 -37 q9 -88 50 -135t101 -47q22 0 63 13t69 62.5t28 138.5q0 26 -3 56q0 35 -13.5 64t-47.5 62t-94 33q-36 0 -68 -17.5t-50.5 -47.5t-27.5 -64.5t-9 -80.5z" />
<glyph unicode="r" horiz-adv-x="255" d="M69 24v481q0 14 10 24t25 10t25 -11t10 -27l-4 -56q3 8 5.5 13.5t13 24.5t31.5 37t40 22q23 4 37 -8t14 -32q0 -23 -38 -37l-11 -5q-48 -21 -68.5 -62.5t-20.5 -128.5l-2 -245q0 -14 -9.5 -24t-24.5 -10q-13 0 -23 10t-10 24z" />
<glyph unicode="s" horiz-adv-x="445" d="M25 88q-1 5 4 23.5t30 18.5q8 0 19 -7l5 -4l20 -17q21 -20 44 -31t44.5 -14t30.5 -3q52 0 85.5 27.5t33.5 63.5q0 39 -26 55.5t-37 21.5t-28 13l-48 20q-39 16 -63 27.5t-59 34t-35 81.5q0 45 43 94t134 49q17 0 35 -2.5t32 -6t46.5 -16t50 -30t13.5 -37.5 q-6 -27 -32 -27q-8 0 -15 4l-18 11l-13 8q-50 33 -99 33q-11 0 -16 -1q-34 0 -55.5 -16t-27 -37t-5.5 -26q0 -26 24.5 -41t45 -24t42.5 -17l23 -10q27 -11 47.5 -20.5t48.5 -27t45.5 -48.5t17.5 -65q0 -65 -56.5 -109t-135.5 -44q-18 0 -44.5 4t-47.5 13t-36 17.5 t-29.5 18.5t-25.5 22t-12 21z" />
<glyph unicode="t" horiz-adv-x="233" d="M41 533h44v127q0 15 10 26.5t24 11.5q15 0 25 -10.5t10 -26.5v-128h46q12 0 24 -10q8 -10 8 -21q0 -12 -10 -20.5t-23 -8.5h-45v-447q0 -13 -10 -24t-25 -11q-14 0 -23.5 10t-9.5 24v448h-46q-14 0 -23 8.5t-9 20.5t10.5 21.5t22.5 9.5z" />
<glyph unicode="u" horiz-adv-x="545" d="M69 196v310q0 16 11 25q9 10 23 10q15 0 24 -11q10 -9 10 -24v-311q0 -66 27 -100t64.5 -39t44.5 -5q8 0 71.5 9t63.5 135v311q0 15 10 24q9 11 24 11q14 0 24 -10.5t10 -24.5v-310q0 -99 -52 -152t-151 -53q-100 0 -152 53t-52 152z" />
<glyph unicode="v" horiz-adv-x="423" d="M12 496q-4 12 2 24.5t14.5 16t17.5 3.5q22 0 31 -25l136 -400l133 400l8 14q9 12 24 12q14 0 25 -12l8 -13q2 -8 2 -10q0 -4 -2 -10l-165 -480q-6 -18 -17 -21.5t-19 -3.5q-25 0 -33 25z" />
<glyph unicode="w" horiz-adv-x="755" d="M12 495q-2 10 -1 14q0 14 10 23t23 9q10 0 20.5 -4.5t15.5 -19.5l131 -413l127 401q12 38 38 38q7 0 14 -2.5t13.5 -9t13.5 -26.5l127 -401l131 413q3 14 14.5 19t20.5 5q31 0 34 -32q1 -4 -1 -14l-157 -466l-8 -20q-11 -19 -33 -19q-16 0 -25 9.5t-15 27.5l-128 404 l-127 -404q-13 -37 -41 -37t-41 39z" />
<glyph unicode="x" horiz-adv-x="465" d="M20 49l171 236l-152 202q-6 8 -6 24q0 5 6.5 18t25.5 13q10 0 20 -8l13 -15l134 -182l135 182l13 15q10 8 20 8q18 0 25 -13t7 -18q2 -13 -6 -24l-152 -202l171 -236q8 -11 8 -28q0 -13 -10 -21t-23 -8q-7 0 -14 3t-18 17l-156 219l-155 -219q-10 -14 -17.5 -17t-15.5 -3 q-13 0 -22.5 8.5t-9.5 22.5q0 15 8 26z" />
<glyph unicode="y" horiz-adv-x="422" d="M12 496q-2 6 -2 10q0 6 6 20.5t29 14.5q9 0 18.5 -5t14.5 -20l134 -406l127 402q9 29 34 29q4 0 19.5 -5t15.5 -28q0 -3 -2 -11l-230 -683q-11 -33 -35 -33l-11 2q-23 8 -23 32q0 8 2 12l68 184z" />
<glyph unicode="z" horiz-adv-x="441" d="M38 55l279 415h-239q-15 0 -26 9t-11 22t10.5 22.5t25.5 9.5h295l13 -1q25 -3 25 -31q0 -4 -2 -12l-6 -11l-279 -415h260q15 0 26.5 -9.5t11.5 -22.5q0 -14 -11.5 -22.5t-26.5 -8.5h-317l-7 1q-12 1 -20 10t-8 22q0 8 2 13z" />
<glyph unicode="{" horiz-adv-x="313" d="M53 360q27 0 44 20t17 51v337q0 62 76 62h56q14 0 14 -18q0 -13 -14 -13h-11q-37 0 -48 -12t-11 -50v-301q0 -31 -18 -52t-48 -24q28 -3 47 -24t19 -52v-301q0 -39 10.5 -50.5t48.5 -11.5h11q14 0 14 -16q0 -15 -14 -15h-56q-38 0 -57 16t-19 46v337q0 48 -23 58.5 t-38 12.5z" />
<glyph unicode="|" horiz-adv-x="160" d="M53 0v720h54v-720h-54z" />
<glyph unicode="}" horiz-adv-x="313" d="M67 830h56q75 0 75 -62v-337q0 -31 17 -51t45 -20q-27 0 -44.5 -20.5t-17.5 -50.5v-337q0 -62 -75 -62h-56q-14 0 -14 16q0 15 14 15h11q37 0 48 12t11 50v301q0 31 18 52t48 24q-28 3 -47 24t-19 52v301q0 38 -11 50t-48 12h-11q-14 0 -14 16q0 15 14 15z" />
<glyph unicode="~" horiz-adv-x="454" d="M53 295v16q0 50 22.5 76.5t61.5 26.5q26 0 59 -14l76 -32l13 -5q20 -6 32 -6q31 0 38 47l1 9h45v-15q0 -50 -22.5 -76.5t-62.5 -26.5q-26 0 -59 14l-75 32l-14 5q-8 3 -17 3.5t-14 1.5q-31 0 -39 -46l-1 -10h-44z" />
<glyph unicode="&#xa1;" horiz-adv-x="198" d="M54 693q0 18 13.5 30.5t31.5 12.5q19 0 32 -13.5t13 -31.5t-13 -31t-33 -13q-19 0 -31.5 13.5t-12.5 32.5zM66 21v465q0 14 10 24t24 10q13 0 22.5 -9.5t9.5 -23.5v-465q0 -15 -9.5 -25t-23.5 -10q-13 0 -23 10t-10 24z" />
<glyph unicode="&#xa2;" horiz-adv-x="442" d="M227 537v71q0 16 17 16q7 0 12 -5t5 -13v-64q10 1 17 1.5t13 -0.5q18 0 28.5 -1.5t51.5 -15t41 -41.5q0 -10 -9.5 -22.5t-24.5 -12.5q-10 0 -18 4l-14 7l-6 3l-12 5q-27 10 -44 10q-11 0 -23 -3v-416q14 -2 21 -2q15 0 33 5l19 8l9 4l10 4l15 7q9 4 24.5 -3t15.5 -29 q0 -15 -12.5 -27.5t-41 -22.5t-66.5 -10h-27v-59q0 -8 -5 -13.5t-13 -5.5q-6 0 -11.5 5.5t-5.5 13.5v63l-21 5q-66 20 -106.5 71.5t-49.5 109t-9.5 68.5t-0.5 18q0 95 46.5 165t122.5 96zM227 470l-9 -4q-45 -21 -68 -57t-27.5 -75.5t-5 -47t-0.5 -12.5q0 -24 7.5 -69 t29 -78.5t60.5 -52.5l12 -5z" />
<glyph unicode="&#xa3;" horiz-adv-x="589" d="M68 392h94l-14 25q-22 39 -32 74.5t-10 69.5q0 68 44.5 114t94.5 54.5t69 8.5q7 0 16.5 -1t69 -10.5t99.5 -77t40 -94.5q0 -15 -10 -25t-24 -10q-16 0 -28 15l-11 30l-7 16q-39 76 -88.5 83t-58.5 7q-60 0 -98.5 -34.5t-38.5 -85.5q0 -12 3.5 -33t18.5 -53l22 -44l4 -7 l10 -20h122q15 0 27 -9.5t12 -22.5t-10.5 -22.5t-27.5 -9.5h-104l5 -22q1 -12 2.5 -22t1.5 -23q0 -46 -18 -89.5t-57 -87.5l-22 -22h357q13 0 24.5 -9.5t11.5 -23.5q0 -11 -10 -21t-24 -10h-420l-11 3q-22 9 -22 32q0 8 4.5 14.5t11.5 15.5l4 4l24 23l18 20q34 44 47 83 t13 85q0 18 -3 31q-5 12 -6 18h-116q-14 0 -24 9t-10 22q0 12 9.5 22t25.5 10z" />
<glyph unicode="&#xa4;" horiz-adv-x="457" d="M53 214l65 65q-29 37 -29 81q0 45 28 82l-64 61l7 8l6 8l7 7l8 7l65 -63q36 28 81 28q48 0 84 -27l63 63l9 -7q12 -10 21 -24l-65 -61q26 -36 26 -82t-27 -82l65 -65l-7 -7l-6 -6l-9 -8l-8 -7l-63 65q-35 -28 -82 -28t-82 28l-65 -64q-16 12 -28 28zM134 360 q0 -39 27.5 -66.5t65.5 -27.5q39 0 66.5 27.5t27.5 66.5t-27.5 66.5t-66.5 27.5t-66 -27t-27 -67z" />
<glyph unicode="&#xa5;" horiz-adv-x="561" d="M105 708l176 -299l176 299q3 7 10 11q13 11 29 8q14 -2 21 -13.5t3 -25.5l-4 -10l-162 -273l125 1q8 0 15 -6t7 -15q0 -10 -6.5 -16t-14.5 -6l-153 -1l-13 -24v-19l166 1q9 0 15 -6t6 -15q0 -10 -7 -15.5t-14 -5.5l-166 -1l1 -250q0 -36 -34 -36q-35 0 -35 36l-2 249 l-164 -1q-8 0 -19 7q-6 6 -6 15q0 7 8 14t17 7l165 1l-1 19l-14 24l-150 -1q-9 0 -17 7t-8 15q0 7 7.5 13.5t17.5 6.5l126 1l-161 274l-4 10q-4 14 3 25t22 14t29 -8z" />
<glyph unicode="&#xa7;" horiz-adv-x="566" d="M144 458q-31 20 -48.5 52.5t-17.5 70.5q0 70 38.5 101.5t63 41.5t55.5 10q35 3 63 3q68 0 108 -16.5t60 -46.5t28.5 -51t8.5 -37q0 -23 -16 -34l-8 -5q-8 -3 -16 -3q-26 0 -32 25l-3 16l-3 18l-1 9q0 11 -10 25t-30 21.5t-50 11.5t-42 4h-18q-61 0 -93 -24t-32 -63 q0 -14 3 -26.5t14.5 -26t38.5 -30.5l11 -6l183 -94l36 -20q47 -29 71.5 -70t24.5 -86q0 -86 -47.5 -120.5t-56 -39.5t-22.5 -10q18 -11 44 -40.5t26 -83.5q0 -74 -45.5 -108t-77 -42.5t-80.5 -8.5q-73 0 -115 17t-60.5 47t-25 50.5t-6.5 35.5q0 20 8 31.5t20 14t15 2.5 q29 0 29 -37l1 -9l4 -23q7 -51 47.5 -57.5t65.5 -6.5q77 0 113 22.5t36 64.5q0 27 -13.5 46t-47.5 36l-173 89q-75 39 -105.5 82.5t-30.5 108.5q0 75 46 117t64 52zM201 427q-40 -22 -74 -64t-34 -83q0 -65 103 -118l134 -70l20 7q57 24 85.5 56t28.5 68q0 37 -18.5 60 t-35 34t-44.5 26z" />
<glyph unicode="&#xa8;" horiz-adv-x="221" d="M-29 623q0 20 14 34t34 14t33 -14t13 -33q0 -20 -13.5 -33.5t-31.5 -13.5q-21 0 -35 13t-14 33zM156 623q0 20 13 34t33 14q19 0 33.5 -13.5t14.5 -33.5t-14 -33.5t-34 -13.5t-33 13t-13 33z" />
<glyph unicode="&#xa9;" horiz-adv-x="858" d="M56 361q0 155 109 264t264 109t264 -109t109 -264t-109 -264t-264 -109t-264 109t-109 264zM100 361q0 -67 25 -128t72 -109t107 -72.5t125 -24.5q64 0 124.5 24.5t108 72.5t72 109t24.5 127q0 65 -24 126.5t-72 110t-108 73t-125 24.5q-64 0 -124.5 -24.5t-107.5 -72.5 t-72 -108.5t-25 -127.5zM241 354l3 44q13 91 65.5 141t131.5 50q65 0 100.5 -26t27.5 -49q-6 -19 -23 -19q-8 0 -21 8l-7 5l-12 9q-5 3 -14 7t-22 8t-33 4q-15 0 -27 -3t-36.5 -15t-45 -45t-24 -63t-4 -38.5t-0.5 -13.5q0 -19 6.5 -62t43.5 -79t92 -36q8 0 28.5 3t46.5 17 l4 3l14 9l12 6q12 4 22 -4t10 -22q0 -17 -36 -40.5t-102 -23.5q-86 0 -143 61.5t-57 163.5z" />
<glyph unicode="&#xaa;" horiz-adv-x="440" d="M77 323h289q10 0 15.5 -6.5t5.5 -15.5q0 -8 -6.5 -14t-14.5 -6h-290q-8 0 -15.5 6t-7.5 15q0 8 7.5 14.5t16.5 6.5zM314 684v21q0 11 9 19t22 8q12 0 20 -9t8 -21v-312q0 -11 -8 -20t-21 -9t-22 8t-9 21v26q-32 -54 -102 -54q-30 0 -58 12.5t-61.5 51t-33.5 115.5 q0 69 25 110.5t59 61t72 19.5q62 0 100 -48zM119 548q0 -64 27.5 -99.5t70.5 -35.5q16 0 39.5 7.5t41 39.5t17.5 92q0 37 -5 56t-25 46t-65 27q-44 0 -65 -26t-28.5 -51t-7.5 -56z" />
<glyph unicode="&#xab;" horiz-adv-x="381" d="M49 289l89 156q7 13 24 20q14 5 25 -3t11 -23q0 -14 -6 -25l-91 -149l90 -150q8 -14 8 -24q0 -18 -13.5 -23t-17.5 -5q-17 0 -31 24l-83 149q-14 24 -14 32q0 6 9 21zM190 289l89 156q7 13 19.5 17.5t14.5 4.5q11 0 19 -8t8 -20q0 -15 -7 -25l-90 -149l89 -150 q8 -14 8 -24q0 -18 -13 -23t-17 -5q-18 0 -32 24l-82 149q-15 27 -15 32q0 6 9 21z" />
<glyph unicode="&#xac;" horiz-adv-x="562" d="M53 360v54h456v-198h-48v144h-408z" />
<glyph unicode="&#xae;" horiz-adv-x="858" d="M56 361q0 155 109 264t264 109t264 -109t109 -264t-109 -264t-264 -109t-264 109t-109 264zM100 361q0 -67 25 -128t72 -109t107 -72.5t125 -24.5q64 0 124.5 24.5t108 72.5t72 109t24.5 127q0 65 -24 126.5t-72 110t-108 73t-125 24.5q-64 0 -124.5 -24.5t-107.5 -72.5 t-72 -108.5t-25 -127.5zM302 164v395q0 19 18 26l11 3h106q51 0 87.5 -26.5t42.5 -52.5t7 -36t1 -18q0 -52 -35 -85t-94 -33l-22 1l149 -158q7 -7 7 -18q0 -5 -4.5 -16t-23.5 -11q-5 0 -13 4l-8 6l-172 192v-174q0 -12 -8 -20t-20 -8t-20.5 8.5t-8.5 20.5zM359 382h84 q32 0 53.5 22.5t21.5 55.5q0 32 -24 54t-59 22h-76v-154z" />
<glyph unicode="&#xaf;" horiz-adv-x="283" d="M37 655l211 -1q15 0 25.5 -10.5t10.5 -24.5t-12 -24.5t-25 -10.5l-209 1q-14 0 -25.5 10.5t-11.5 24.5t10.5 24.5t25.5 10.5z" />
<glyph unicode="&#xb0;" horiz-adv-x="370" d="M53 602q0 55 39.5 93.5t92.5 38.5q55 0 93.5 -38.5t38.5 -93.5t-38.5 -93.5t-93.5 -38.5t-93.5 38.5t-38.5 93.5zM95 602q0 -37 26 -63t64 -26t64 26t26 63q0 38 -26 64t-64 26t-64 -26t-26 -64z" />
<glyph unicode="&#xb4;" horiz-adv-x="217" d="M26 641l144 56q10 2 14 2h9q4 -2 15 -6t11 -27q0 -7 -5 -17.5t-19 -15.5l-144 -56q-8 -3 -15 -3q-6 0 -20 6.5t-14 27.5q0 7 5 17.5t19 15.5z" />
<glyph unicode="&#xb6;" horiz-adv-x="609" d="M245 720h286q10 0 18 -8t8 -17q0 -11 -8.5 -17.5t-17.5 -6.5l-287 -1q-59 0 -99.5 -42.5t-40.5 -103.5q0 -58 41 -99t99 -41h70l1 220q0 11 7.5 18.5t18.5 7.5t18 -7t7 -18v-584q0 -11 -7 -18t-18 -7t-19 7t-8 19v312h-69q-80 0 -136 56t-56 137q0 80 55.5 136.5 t136.5 56.5zM433 21l1 584q0 10 8 18t19 8t18 -7t7 -19v-584q0 -11 -8 -18t-19 -7q-10 0 -18 7t-8 18z" />
<glyph unicode="&#xb7;" horiz-adv-x="208" d="M59 260q0 18 12.5 31.5t31.5 13.5t32.5 -13t13.5 -31t-13.5 -31.5t-31.5 -13.5q-19 0 -32 13t-13 31z" />
<glyph unicode="&#xb8;" horiz-adv-x="152" d="M32 -68l58 99h62l-75 -156q-6 -14 -22 -19q-14 -4 -25 5t-11 24q0 24 13 47z" />
<glyph unicode="&#xba;" horiz-adv-x="431" d="M76 324l281 -1q9 0 15.5 -6.5t6.5 -14.5q0 -7 -7.5 -13.5t-15.5 -6.5h-281q-9 0 -15.5 6t-6.5 15q0 8 6.5 14.5t16.5 6.5zM57 548q0 70 35 118.5t66.5 56t41.5 8.5t18 1q58 0 102 -42t50 -81t6 -46.5v-15.5v-12q0 -7 -5.5 -48t-50 -83.5t-102.5 -42.5h-17 q-12 3 -42.5 9.5t-66 56t-35.5 121.5zM120 547l1 -21q6 -54 31.5 -83.5t63.5 -29.5q11 0 32 5t40.5 32.5t24.5 75.5v42q-5 46 -24.5 73.5t-40.5 33t-32 5.5q-37 0 -63 -29t-32 -83z" />
<glyph unicode="&#xbb;" horiz-adv-x="381" d="M102 442l83 -149q14 -25 14 -32q0 -6 -9 -21l-88 -157q-10 -15 -25 -19q-14 -5 -25 3t-11 23q0 13 6 24l91 150l-90 150q-8 13 -8 23q0 19 21 27q24 9 41 -22zM244 442l82 -149q15 -27 15 -32q0 -6 -9 -21l-89 -157q-8 -14 -20 -17.5t-14 -3.5q-11 0 -19 8t-8 20t7 24 l90 150l-90 150q-7 11 -7 23q0 19 20 27q24 8 42 -22z" />
<glyph unicode="&#xbf;" horiz-adv-x="455" d="M167 694q0 18 13 30t31 12q19 0 32 -13t13 -31t-13 -30.5t-33 -12.5q-19 0 -31 13t-12 32zM176 343v144q0 14 10 23t25 9q32 0 32 -32v-128l21 -4q57 -13 96.5 -51.5t47.5 -77.5t8 -59q0 -78 -55.5 -129.5t-147.5 -51.5q-100 0 -144 53t-44 92v9q2 4 6 18t29 14 q7 0 18 -4.5t16 -28.5l3 -9l3 -10l3 -9q11 -25 31.5 -38.5t47 -17t35.5 -3.5q56 0 89 32t33 83q0 15 -9.5 59.5t-84.5 63.5l-19 3l-11 2l-8 1l-11 5q-17 9 -20 26v16z" />
<glyph unicode="&#xc0;" horiz-adv-x="612" d="M17 42l237 640q16 45 48 45q12 0 23 -3.5t17.5 -12t14.5 -29.5l238 -640q4 -11 4 -21v-6q-2 -4 -6 -14.5t-26 -10.5q-11 0 -19 7q-8 5 -13 17l-57 145h-345l-56 -145q-4 -10 -12.5 -17t-20.5 -7q-21 0 -29 20q-2 8 -2 13q0 10 4 19zM153 219h306l-153 419zM246 884 l144 -56q15 -7 19.5 -16.5t4.5 -17.5q0 -24 -21 -30q-6 -3 -14 -3q-6 0 -14 3l-144 55q-13 6 -18.5 16t-5.5 18q0 22 14 27.5t22 5.5q5 0 13 -2z" />
<glyph unicode="&#xc1;" horiz-adv-x="612" d="M17 42l237 640q16 45 48 45q12 0 23 -3.5t17.5 -12t14.5 -29.5l238 -640q4 -11 4 -21v-6q-2 -4 -6 -14.5t-26 -10.5q-11 0 -19 7q-8 5 -13 17l-57 145h-345l-56 -145q-4 -10 -12.5 -17t-20.5 -7q-21 0 -29 20q-2 8 -2 13q0 10 4 19zM153 219h306l-153 419zM224 828 l144 56q10 2 14 2h9q4 -2 15 -6t11 -27q0 -7 -5 -17.5t-19 -15.5l-144 -56q-8 -3 -15 -3q-6 0 -20 6.5t-14 27.5q0 7 5 17.5t19 15.5z" />
<glyph unicode="&#xc2;" horiz-adv-x="612" d="M17 42l237 640q16 45 48 45q12 0 23 -3.5t17.5 -12t14.5 -29.5l238 -640q4 -11 4 -21v-6q-2 -4 -6 -14.5t-26 -10.5q-11 0 -19 7q-8 5 -13 17l-57 145h-345l-56 -145q-4 -10 -12.5 -17t-20.5 -7q-21 0 -29 20q-2 8 -2 13q0 10 4 19zM153 219h306l-153 419zM176 829 l110 43q7 3 12.5 4t8.5 2l20 -7l110 -41q22 -8 22 -32q0 -9 -7.5 -23t-30.5 -14q-6 0 -14 3l-101 42l-104 -42q-4 -2 -14 -2q-9 0 -22 5t-13 29q0 6 5 16.5t18 16.5z" />
<glyph unicode="&#xc3;" horiz-adv-x="612" d="M17 42l237 640q16 45 48 45q12 0 23 -3.5t17.5 -12t14.5 -29.5l238 -640q4 -11 4 -21v-6q-2 -4 -6 -14.5t-26 -10.5q-11 0 -19 7q-8 5 -13 17l-57 145h-345l-56 -145q-4 -10 -12.5 -17t-20.5 -7q-21 0 -29 20q-2 8 -2 13q0 10 4 19zM153 219h306l-153 419zM200 842 l211 -1q15 0 25.5 -10.5t10.5 -24.5t-12 -24.5t-25 -10.5l-209 1q-14 0 -25.5 10.5t-11.5 24.5t10.5 24.5t25.5 10.5z" />
<glyph unicode="&#xc4;" horiz-adv-x="612" d="M17 42l237 640q16 45 48 45q12 0 23 -3.5t17.5 -12t14.5 -29.5l238 -640q4 -11 4 -21v-6q-2 -4 -6 -14.5t-26 -10.5q-11 0 -19 7q-8 5 -13 17l-57 145h-345l-56 -145q-4 -10 -12.5 -17t-20.5 -7q-21 0 -29 20q-2 8 -2 13q0 10 4 19zM153 219h306l-153 419zM151 734 q0 19 14 33t34 14q19 0 32.5 -13.5t13.5 -33.5q0 -19 -13.5 -32.5t-31.5 -13.5q-21 0 -35 13t-14 33zM367 733q0 20 13 34t33 14q19 0 34 -13q13 -14 13 -34t-13.5 -33t-34.5 -13q-19 0 -32 13t-13 32z" />
<glyph unicode="&#xc5;" horiz-adv-x="612" d="M17 42l237 640q9 22 13.5 28.5t14.5 11.5q-26 9 -41.5 30t-15.5 48q0 35 24 60t57 25q34 0 57 -25t23 -59q0 -27 -16 -48.5t-41 -29.5q11 -5 15.5 -11.5t12.5 -29.5l238 -640q4 -11 4 -21v-6q-2 -4 -6 -14.5t-26 -10.5q-11 0 -19 7q-8 5 -13 17l-57 145h-345l-56 -145 q-4 -10 -12.5 -17t-20.5 -7q-21 0 -29 20q-2 8 -2 13q0 10 4 19zM153 219h306l-153 419zM267 803q0 -16 11 -28t28 -12t28.5 11.5t11.5 27.5q0 15 -11 28q-13 11 -28 11q-16 0 -28 -11t-12 -27z" />
<glyph unicode="&#xc6;" horiz-adv-x="746" d="M9 40l326 646q10 20 19 27t24 7h288q12 0 22 -9t10 -22q0 -14 -9 -23t-22 -9h-217v-267h207q28 0 28 -32q0 -13 -9 -22t-22 -9h-206v-264h227q7 0 11 -1.5t12 -9t8 -21.5q0 -12 -9 -21.5t-23 -9.5h-258q-36 0 -36 38v123h-237l-76 -148q-6 -12 -15 -17t-17 -5 q-19 0 -24.5 12.5t-5.5 19.5q0 10 4 17zM172 220h209v414z" />
<glyph unicode="&#xc7;" horiz-adv-x="589" d="M40 351v28t11.5 102.5t94.5 168.5t204 81q48 0 88.5 -13t69 -33t39 -34.5t10.5 -26.5q0 -3 -5.5 -19t-27.5 -16q-11 0 -24 10l-9 8q-27 25 -52 38t-52 17.5t-45 4.5q-87 0 -149.5 -68.5t-71 -143t-8.5 -100.5v-25t11 -80.5t73.5 -133t156.5 -62.5q19 0 53 4.5t77 30.5 l2 2l27 19q20 14 30 14q3 0 17.5 -5t14.5 -31q0 -11 -6 -19.5t-16.5 -17t-31.5 -22t-67.5 -26.5t-99.5 -13q-136 0 -225 97.5t-89 263.5zM283 -80l57 61h62l-75 -95q-10 -13 -25 -16q-12 -2 -21 6t-9 21q2 15 11 23z" />
<glyph unicode="&#xc8;" horiz-adv-x="438" d="M69 39v645q0 15 10.5 25.5t25.5 10.5h250q14 0 23 -9t9 -22q0 -14 -10 -23t-23 -9h-214v-266h204q13 0 23.5 -9t10.5 -23q0 -13 -9.5 -22.5t-22.5 -9.5h-207v-264h227q13 0 22.5 -9t9.5 -23q0 -12 -9 -21.5t-23 -9.5h-262q-35 0 -35 39zM159 884l144 -56 q15 -7 19.5 -16.5t4.5 -17.5q0 -24 -21 -30q-6 -3 -14 -3q-6 0 -14 3l-144 55q-13 6 -18.5 16t-5.5 18q0 22 14 27.5t22 5.5q5 0 13 -2z" />
<glyph unicode="&#xc9;" horiz-adv-x="438" d="M69 39v645q0 15 10.5 25.5t25.5 10.5h250q14 0 23 -9t9 -22q0 -14 -10 -23t-23 -9h-214v-266h204q13 0 23.5 -9t10.5 -23q0 -13 -9.5 -22.5t-22.5 -9.5h-207v-264h227q13 0 22.5 -9t9.5 -23q0 -12 -9 -21.5t-23 -9.5h-262q-35 0 -35 39zM137 828l144 56q10 2 14 2h9 q4 -2 15 -6t11 -27q0 -7 -5 -17.5t-19 -15.5l-144 -56q-8 -3 -15 -3q-6 0 -20 6.5t-14 27.5q0 7 5 17.5t19 15.5z" />
<glyph unicode="&#xca;" horiz-adv-x="438" d="M69 39v645q0 15 10.5 25.5t25.5 10.5h250q14 0 23 -9t9 -22q0 -14 -10 -23t-23 -9h-214v-266h204q13 0 23.5 -9t10.5 -23q0 -13 -9.5 -22.5t-22.5 -9.5h-207v-264h227q13 0 22.5 -9t9.5 -23q0 -12 -9 -21.5t-23 -9.5h-262q-35 0 -35 39zM89 829l110 43q7 3 12.5 4t8.5 2 l20 -7l110 -41q22 -8 22 -32q0 -9 -7.5 -23t-30.5 -14q-6 0 -14 3l-101 42l-104 -42q-4 -2 -14 -2q-9 0 -22 5t-13 29q0 6 5 16.5t18 16.5z" />
<glyph unicode="&#xcb;" horiz-adv-x="438" d="M69 39v645q0 15 10.5 25.5t25.5 10.5h250q14 0 23 -9t9 -22q0 -14 -10 -23t-23 -9h-214v-266h204q13 0 23.5 -9t10.5 -23q0 -13 -9.5 -22.5t-22.5 -9.5h-207v-264h227q13 0 22.5 -9t9.5 -23q0 -12 -9 -21.5t-23 -9.5h-262q-35 0 -35 39zM80 810q0 20 14 34t34 14t33 -14 t13 -33q0 -20 -13.5 -33.5t-31.5 -13.5q-21 0 -35 13t-14 33zM265 810q0 20 13 34t33 14q19 0 33.5 -13.5t14.5 -33.5t-14 -33.5t-34 -13.5t-33 13t-13 33z" />
<glyph unicode="&#xcc;" horiz-adv-x="206" d="M69 24v668q0 15 10 25t24 10q15 0 24.5 -11t9.5 -24v-668q0 -14 -9 -24t-24 -10q-14 0 -24.5 9.5t-10.5 24.5zM43 884l144 -56q15 -7 19.5 -16.5t4.5 -17.5q0 -24 -21 -30q-6 -3 -14 -3q-6 0 -14 3l-144 55q-13 6 -18.5 16t-5.5 18q0 22 14 27.5t22 5.5q5 0 13 -2z" />
<glyph unicode="&#xcd;" horiz-adv-x="206" d="M69 24v668q0 15 10 25t24 10q15 0 24.5 -11t9.5 -24v-668q0 -14 -9 -24t-24 -10q-14 0 -24.5 9.5t-10.5 24.5zM21 828l144 56q10 2 14 2h9q4 -2 15 -6t11 -27q0 -7 -5 -17.5t-19 -15.5l-144 -56q-8 -3 -15 -3q-6 0 -20 6.5t-14 27.5q0 7 5 17.5t19 15.5z" />
<glyph unicode="&#xce;" horiz-adv-x="206" d="M69 24v668q0 15 10 25t24 10q15 0 24.5 -11t9.5 -24v-668q0 -14 -9 -24t-24 -10q-14 0 -24.5 9.5t-10.5 24.5zM-27 829l110 43q7 3 12.5 4t8.5 2l20 -7l110 -41q22 -8 22 -32q0 -9 -7.5 -23t-30.5 -14q-6 0 -14 3l-101 42l-104 -42q-4 -2 -14 -2q-9 0 -22 5t-13 29 q0 6 4.5 16.5t18.5 16.5z" />
<glyph unicode="&#xcf;" horiz-adv-x="206" d="M69 24v668q0 15 10 25t24 10q15 0 24.5 -11t9.5 -24v-668q0 -14 -9 -24t-24 -10q-14 0 -24.5 9.5t-10.5 24.5zM-36 810q0 20 14 34t34 14t33 -14t13 -33q0 -20 -13.5 -33.5t-31.5 -13.5q-21 0 -35 13t-14 33zM149 810q0 20 13 34t33 14q19 0 33.5 -13.5t14.5 -33.5 t-14 -33.5t-34 -13.5t-33 13t-13 33z" />
<glyph unicode="&#xd1;" horiz-adv-x="672" d="M69 27v668q0 14 11 24.5t25 10.5q19 0 28 -15l402 -597v575q0 14 10 25t24 11t24 -10.5t10 -25.5v-669l-3 -14l-6 -9q-11 -12 -26 -12q-18 0 -28 16l-403 598v-576q0 -14 -9 -24t-24 -10t-25 9t-10 25zM230 842l211 -1q15 0 25.5 -10.5t10.5 -24.5t-12 -24.5t-25 -10.5 l-209 1q-14 0 -25.5 10.5t-11.5 24.5t10.5 24.5t25.5 10.5z" />
<glyph unicode="&#xd2;" horiz-adv-x="690" d="M40 360q0 167 87.5 268t215.5 101q31 0 101.5 -15.5t138 -112.5t67.5 -241q0 -167 -87.5 -267.5t-217.5 -100.5q-129 0 -217 100.5t-88 267.5zM117 360q0 -145 63 -226.5t161 -81.5q27 0 81.5 12.5t102.5 89.5t48 206q0 128 -48.5 205.5t-102.5 90t-81 12.5 q-98 0 -161 -81.5t-63 -226.5zM285 884l144 -56q15 -7 19.5 -16.5t4.5 -17.5q0 -24 -21 -30q-6 -3 -14 -3q-6 0 -14 3l-144 55q-13 6 -18.5 16t-5.5 18q0 22 14 27.5t22 5.5q5 0 13 -2z" />
<glyph unicode="&#xd3;" horiz-adv-x="690" d="M40 360q0 167 87.5 268t215.5 101q31 0 101.5 -15.5t138 -112.5t67.5 -241q0 -167 -87.5 -267.5t-217.5 -100.5q-129 0 -217 100.5t-88 267.5zM117 360q0 -145 63 -226.5t161 -81.5q27 0 81.5 12.5t102.5 89.5t48 206q0 128 -48.5 205.5t-102.5 90t-81 12.5 q-98 0 -161 -81.5t-63 -226.5zM263 828l144 56q10 2 14 2h9q4 -2 15 -6t11 -27q0 -7 -5 -17.5t-19 -15.5l-144 -56q-8 -3 -15 -3q-6 0 -20 6.5t-14 27.5q0 7 5 17.5t19 15.5z" />
<glyph unicode="&#xd4;" horiz-adv-x="690" d="M40 360q0 167 87.5 268t215.5 101q31 0 101.5 -15.5t138 -112.5t67.5 -241q0 -167 -87.5 -267.5t-217.5 -100.5q-129 0 -217 100.5t-88 267.5zM117 360q0 -145 63 -226.5t161 -81.5q27 0 81.5 12.5t102.5 89.5t48 206q0 128 -48.5 205.5t-102.5 90t-81 12.5 q-98 0 -161 -81.5t-63 -226.5zM215 829l110 43q7 3 12.5 4t8.5 2l20 -7l110 -41q22 -8 22 -32q0 -9 -7.5 -23t-30.5 -14q-6 0 -14 3l-101 42l-104 -42q-4 -2 -14 -2q-9 0 -22 5t-13 29q0 6 5 16.5t18 16.5z" />
<glyph unicode="&#xd5;" horiz-adv-x="690" d="M40 360q0 167 87.5 268t215.5 101q31 0 101.5 -15.5t138 -112.5t67.5 -241q0 -167 -87.5 -267.5t-217.5 -100.5q-129 0 -217 100.5t-88 267.5zM117 360q0 -145 63 -226.5t161 -81.5q27 0 81.5 12.5t102.5 89.5t48 206q0 128 -48.5 205.5t-102.5 90t-81 12.5 q-98 0 -161 -81.5t-63 -226.5zM239 842l211 -1q15 0 25.5 -10.5t10.5 -24.5t-12 -24.5t-25 -10.5l-209 1q-14 0 -25.5 10.5t-11.5 24.5t10.5 24.5t25.5 10.5z" />
<glyph unicode="&#xd6;" horiz-adv-x="690" d="M40 360q0 167 87.5 268t215.5 101q31 0 101.5 -15.5t138 -112.5t67.5 -241q0 -167 -87.5 -267.5t-217.5 -100.5q-129 0 -217 100.5t-88 267.5zM117 360q0 -145 63 -226.5t161 -81.5q27 0 81.5 12.5t102.5 89.5t48 206q0 128 -48.5 205.5t-102.5 90t-81 12.5 q-98 0 -161 -81.5t-63 -226.5zM72 739q0 21 13 34t33 13q19 0 32 -13t13 -32q0 -20 -13.5 -33.5t-32.5 -13.5q-18 0 -31.5 13.5t-13.5 31.5zM527 739q0 25 15.5 37.5t31.5 12.5q23 0 33.5 -15.5t10.5 -31.5q0 -21 -13 -34.5t-32 -13.5q-18 0 -32 13t-14 32z" />
<glyph unicode="&#xd8;" horiz-adv-x="690" d="M547 645l66 82q8 10 21 10q11 0 19.5 -9t8.5 -22q0 -10 -8 -21l-69 -84q47 -80 56 -143t9 -101q0 -140 -67.5 -237t-128.5 -111t-76.5 -16t-35.5 -2q-114 0 -191 80l-63 -77q-10 -11 -25 -13q-12 0 -20 8.5t-7 19.5q0 11 9 24l67 81q-37 53 -54.5 113t-17.5 133 q0 166 88 267.5t216 101.5q34 0 90 -13t113 -71zM504 593q-44 52 -91 62.5t-72 10.5q-98 0 -161.5 -81t-63.5 -225q0 -109 43 -189zM192 121q44 -47 88 -56t70 -9q98 0 161 77.5t63 215.5q0 31 -6 83.5t-30 111.5z" />
<glyph unicode="&#xd9;" horiz-adv-x="675" d="M69 246v446q0 13 10 25q12 10 24 10q15 0 24.5 -10.5t9.5 -24.5v-448q0 -77 42.5 -128t91 -59t67.5 -8q18 0 67 8t91 58.5t42 128.5v448q0 14 10.5 24.5t24.5 10.5q13 0 23 -11t10 -24v-446q0 -101 -58 -168t-121 -77.5t-89 -10.5t-90 10.5t-121.5 77t-57.5 168.5z M277 884l144 -56q15 -7 19.5 -16.5t4.5 -17.5q0 -24 -21 -30q-6 -3 -14 -3q-6 0 -14 3l-144 55q-13 6 -18.5 16t-5.5 18q0 22 14 27.5t22 5.5q5 0 13 -2z" />
<glyph unicode="&#xda;" horiz-adv-x="675" d="M69 246v446q0 13 10 25q12 10 24 10q15 0 24.5 -10.5t9.5 -24.5v-448q0 -77 42.5 -128t91 -59t67.5 -8q18 0 67 8t91 58.5t42 128.5v448q0 14 10.5 24.5t24.5 10.5q13 0 23 -11t10 -24v-446q0 -101 -58 -168t-121 -77.5t-89 -10.5t-90 10.5t-121.5 77t-57.5 168.5z M255 828l144 56q10 2 14 2h9q4 -2 15 -6t11 -27q0 -7 -5 -17.5t-19 -15.5l-144 -56q-8 -3 -15 -3q-6 0 -20 6.5t-14 27.5q0 7 5 17.5t19 15.5z" />
<glyph unicode="&#xdb;" horiz-adv-x="675" d="M69 246v446q0 13 10 25q12 10 24 10q15 0 24.5 -10.5t9.5 -24.5v-448q0 -77 42.5 -128t91 -59t67.5 -8q18 0 67 8t91 58.5t42 128.5v448q0 14 10.5 24.5t24.5 10.5q13 0 23 -11t10 -24v-446q0 -101 -58 -168t-121 -77.5t-89 -10.5t-90 10.5t-121.5 77t-57.5 168.5z M207 829l110 43q7 3 12.5 4t8.5 2l20 -7l110 -41q22 -8 22 -32q0 -9 -7.5 -23t-30.5 -14q-6 0 -14 3l-101 42l-104 -42q-4 -2 -14 -2q-9 0 -22 5t-13 29q0 6 5 16.5t18 16.5z" />
<glyph unicode="&#xdc;" horiz-adv-x="675" d="M69 246v446q0 13 10 25q12 10 24 10q15 0 24.5 -10.5t9.5 -24.5v-448q0 -77 42.5 -128t91 -59t67.5 -8q18 0 67 8t91 58.5t42 128.5v448q0 14 10.5 24.5t24.5 10.5q13 0 23 -11t10 -24v-446q0 -101 -58 -168t-121 -77.5t-89 -10.5t-90 10.5t-121.5 77t-57.5 168.5z M212 736q0 20 13 33t33 13q19 0 32.5 -13t13.5 -34q0 -20 -13.5 -33.5t-32.5 -13.5t-32.5 13.5t-13.5 34.5zM371 735q0 20 13.5 33.5t33.5 13.5t33 -14t13 -33t-14 -33t-33 -14t-32.5 14.5t-13.5 32.5z" />
<glyph unicode="&#xdf;" horiz-adv-x="553" d="M69 28v535q0 91 39 144t80 60.5t58 8.5t18 1q70 0 118 -42t56 -90t8 -68q0 -51 -20.5 -90.5t-57.5 -61.5q59 -18 97.5 -73.5t38.5 -132.5v-18q-1 -7 -1 -11q-8 -78 -46 -128.5t-77.5 -60.5t-58.5 -10q-23 0 -38 8.5t-18 21.5q-3 15 3 26t20 14l13 2l22 -1q15 0 34.5 4 t42.5 36.5t26.5 65t3.5 40.5v12q0 18 -9.5 80.5t-97.5 79.5l-17 3q-46 0 -46 28q0 6 4 16t16 15l22 6q10 3 38 21t32 55.5t4 49.5q0 16 -6 49t-36 62t-73 29q-17 0 -66 -12.5t-58 -107.5l-1 -21v-546q0 -15 -9.5 -25.5t-23.5 -10.5q-13 0 -23.5 10.5t-10.5 26.5z" />
<glyph unicode="&#xe0;" horiz-adv-x="560" d="M422 466v39q0 16 11 26t26 10q14 0 23 -10t9 -24v-483q0 -15 -9.5 -24.5t-23.5 -9.5q-15 0 -26 11t-11 28v49q-48 -87 -154 -87q-15 0 -24.5 2t-46 8.5t-86 60.5t-60 114t-10.5 94q0 106 53 179t98.5 81t54.5 9.5t21 1.5q46 0 87 -20t68 -55zM113 269q0 -109 46 -164.5 t120 -55.5q72 0 109.5 56t37.5 171q0 60 -8 92t-29 60t-50.5 42.5t-63.5 14.5q-71 0 -105 -43t-45.5 -81.5t-11.5 -91.5zM220 697l144 -56q15 -7 19.5 -16.5t4.5 -17.5q0 -24 -21 -30q-6 -3 -14 -3q-6 0 -14 3l-144 55q-13 6 -18.5 16t-5.5 18q0 22 14 27.5t22 5.5 q5 0 13 -2z" />
<glyph unicode="&#xe1;" horiz-adv-x="560" d="M422 466v39q0 16 11 26t26 10q14 0 23 -10t9 -24v-483q0 -15 -9.5 -24.5t-23.5 -9.5q-15 0 -26 11t-11 28v49q-48 -87 -154 -87q-15 0 -24.5 2t-46 8.5t-86 60.5t-60 114t-10.5 94q0 106 53 179t98.5 81t54.5 9.5t21 1.5q46 0 87 -20t68 -55zM113 269q0 -109 46 -164.5 t120 -55.5q72 0 109.5 56t37.5 171q0 60 -8 92t-29 60t-50.5 42.5t-63.5 14.5q-71 0 -105 -43t-45.5 -81.5t-11.5 -91.5zM198 641l144 56q10 2 14 2h9q4 -2 15 -6t11 -27q0 -7 -5 -17.5t-19 -15.5l-144 -56q-8 -3 -15 -3q-6 0 -20 6.5t-14 27.5q0 7 5 17.5t19 15.5z" />
<glyph unicode="&#xe2;" horiz-adv-x="560" d="M422 466v39q0 16 11 26t26 10q14 0 23 -10t9 -24v-483q0 -15 -9.5 -24.5t-23.5 -9.5q-15 0 -26 11t-11 28v49q-48 -87 -154 -87q-15 0 -24.5 2t-46 8.5t-86 60.5t-60 114t-10.5 94q0 106 53 179t98.5 81t54.5 9.5t21 1.5q46 0 87 -20t68 -55zM113 269q0 -109 46 -164.5 t120 -55.5q72 0 109.5 56t37.5 171q0 60 -8 92t-29 60t-50.5 42.5t-63.5 14.5q-71 0 -105 -43t-45.5 -81.5t-11.5 -91.5zM150 642l110 43q7 3 12.5 4t8.5 2l20 -7l110 -41q22 -8 22 -32q0 -9 -7.5 -23t-30.5 -14q-6 0 -14 3l-101 42l-104 -42q-4 -2 -14 -2q-9 0 -22 5 t-13 29q0 6 5 16.5t18 16.5z" />
<glyph unicode="&#xe3;" horiz-adv-x="560" d="M422 466v39q0 16 11 26t26 10q14 0 23 -10t9 -24v-483q0 -15 -9.5 -24.5t-23.5 -9.5q-15 0 -26 11t-11 28v49q-48 -87 -154 -87q-15 0 -24.5 2t-46 8.5t-86 60.5t-60 114t-10.5 94q0 106 53 179t98.5 81t54.5 9.5t21 1.5q46 0 87 -20t68 -55zM113 269q0 -109 46 -164.5 t120 -55.5q72 0 109.5 56t37.5 171q0 60 -8 92t-29 60t-50.5 42.5t-63.5 14.5q-71 0 -105 -43t-45.5 -81.5t-11.5 -91.5zM174 655l211 -1q15 0 25.5 -10.5t10.5 -24.5t-12 -24.5t-25 -10.5l-209 1q-14 0 -25.5 10.5t-11.5 24.5t10.5 24.5t25.5 10.5z" />
<glyph unicode="&#xe4;" horiz-adv-x="560" d="M422 466v39q0 16 11 26t26 10q14 0 23 -10t9 -24v-483q0 -15 -9.5 -24.5t-23.5 -9.5q-15 0 -26 11t-11 28v49q-48 -87 -154 -87q-15 0 -24.5 2t-46 8.5t-86 60.5t-60 114t-10.5 94q0 106 53 179t98.5 81t54.5 9.5t21 1.5q46 0 87 -20t68 -55zM113 269q0 -109 46 -164.5 t120 -55.5q72 0 109.5 56t37.5 171q0 60 -8 92t-29 60t-50.5 42.5t-63.5 14.5q-71 0 -105 -43t-45.5 -81.5t-11.5 -91.5zM146 649q0 20 14 34.5t34 14.5q19 0 33 -13.5t14 -34.5q0 -20 -13.5 -34t-34.5 -14q-19 0 -33 14t-14 33zM329 650q0 9 4 18t14 19.5t29 10.5 q20 0 34 -14t14 -34t-14 -34t-33 -14q-20 0 -34 14.5t-14 33.5z" />
<glyph unicode="&#xe5;" horiz-adv-x="560" d="M422 466v39q0 16 11 26t26 10q14 0 23 -10t9 -24v-483q0 -15 -9.5 -24.5t-23.5 -9.5q-15 0 -26 11t-11 28v49q-48 -87 -154 -87q-15 0 -24.5 2t-46 8.5t-86 60.5t-60 114t-10.5 94q0 106 53 179t98.5 81t54.5 9.5t21 1.5q46 0 87 -20t68 -55zM113 269q0 -107 47 -163.5 t119 -56.5q147 0 147 227q0 59 -8 89.5t-41.5 74.5t-103.5 44t-103.5 -42.5t-45 -81t-11.5 -91.5zM198 658q0 32 21.5 53.5t51.5 21.5q29 0 50.5 -22.5t21.5 -51.5q0 -31 -21.5 -52.5t-50.5 -21.5q-31 0 -52 21t-21 52zM234 659q0 -15 10 -26t25 -11t26 10t11 26 q0 14 -9.5 24t-26.5 12q-14 0 -25 -10t-11 -25z" />
<glyph unicode="&#xe6;" horiz-adv-x="898" d="M421 462v43q0 20 12 28t23 8q24 0 32 -23l1 -13v-49l24 26q62 58 137 58q56 0 105 -32.5t69.5 -73.5t27.5 -67t11 -57l1 -10l1 -26q0 -31 -20 -36l-25 -1h-333l2 -25q8 -71 55 -114t115 -43h11q6 0 33.5 4t71.5 32l13 10l3 2l19 17q14 12 24 12q12 0 20.5 -13.5 t8.5 -21.5q0 -22 -38.5 -49.5t-69 -38t-52.5 -13.5t-45 -3q-111 0 -167 80v-47l-2 -14q-5 -23 -33 -23q-9 0 -21.5 7.5t-12.5 28.5v57q-21 -42 -64 -65.5t-95 -23.5q-72 0 -123 40t-75.5 97.5t-24.5 130.5v19.5t6.5 62.5t52 112t86.5 69.5t54.5 12.5t25.5 2q47 0 89 -20.5 t67 -56.5zM112 249l3 -32q20 -133 74.5 -145t69 -13t15.5 -1q64 0 106.5 51t42.5 145q0 96 -29.5 149.5t-70 63t-58.5 9.5q-61 0 -102 -47.5t-46 -95.5t-5 -62v-22zM488 293h308l-3 20q-13 79 -52.5 120.5t-96.5 41.5q-19 0 -39.5 -5t-47.5 -20.5t-48 -50t-21 -83.5v-23z " />
<glyph unicode="&#xe7;" horiz-adv-x="442" d="M40 264q0 125 68 201t169 76q52 0 93.5 -15.5t41.5 -40.5q0 -12 -9.5 -23.5t-25.5 -11.5q-10 0 -18 4l-14 7l-7 3l-12 5q-23 10 -43 10q-10 -1 -16 -1q-58 0 -98.5 -46t-46.5 -91t-6 -56v-17v-21.5t9 -56t52.5 -90.5t97.5 -43q18 0 38 6l19 8l9 4l11 4l15 7q9 4 25 -3 t16 -28q0 -14 -9 -24t-20 -15.5t-36 -14.5t-67 -9q-91 0 -153.5 57.5t-71.5 116t-10 70.5t-1 28zM186 -80l57 60h62l-75 -95q-9 -12 -25 -15q-12 -2 -21 6t-9 20q2 16 11 24z" />
<glyph unicode="&#xe8;" horiz-adv-x="531" d="M447 236h-330q0 -25 11.5 -69.5t53 -78.5t100.5 -34q17 0 39.5 4t44.5 15.5t52 38.5l12 11q9 9 25 11q15 2 25 -9t10 -28q0 -15 -17.5 -32.5t-55.5 -39t-73.5 -28.5t-64.5 -7q-92 0 -155 59t-73.5 124.5t-10.5 94.5q0 23 8 78t56 113.5t98.5 70t73.5 11.5q82 0 142 -58 t68.5 -114.5t10 -67t1.5 -23.5q0 -25 -10.5 -33.5t-40.5 -8.5zM116 294h308l-2 17q-6 41 -17.5 70t-30 51.5t-45.5 35t-58 12.5q-36 0 -68 -17.5t-48 -44t-24.5 -50t-12.5 -51.5zM205 697l144 -56q15 -7 19.5 -16.5t4.5 -17.5q0 -24 -21 -30q-6 -3 -14 -3q-6 0 -14 3 l-144 55q-13 6 -18.5 16t-5.5 18q0 22 14 27.5t22 5.5q5 0 13 -2z" />
<glyph unicode="&#xe9;" horiz-adv-x="531" d="M447 236h-330q0 -25 11.5 -69.5t53 -78.5t100.5 -34q17 0 39.5 4t44.5 15.5t52 38.5l12 11q9 9 25 11q15 2 25 -9t10 -28q0 -15 -17.5 -32.5t-55.5 -39t-73.5 -28.5t-64.5 -7q-92 0 -155 59t-73.5 124.5t-10.5 94.5q0 23 8 78t56 113.5t98.5 70t73.5 11.5q82 0 142 -58 t68.5 -114.5t10 -67t1.5 -23.5q0 -25 -10.5 -33.5t-40.5 -8.5zM116 294h308l-2 17q-6 41 -17.5 70t-30 51.5t-45.5 35t-58 12.5q-36 0 -68 -17.5t-48 -44t-24.5 -50t-12.5 -51.5zM183 641l144 56q10 2 14 2h9q4 -2 15 -6t11 -27q0 -7 -5 -17.5t-19 -15.5l-144 -56 q-8 -3 -15 -3q-6 0 -20 6.5t-14 27.5q0 7 5 17.5t19 15.5z" />
<glyph unicode="&#xea;" horiz-adv-x="531" d="M447 236h-330q0 -25 11.5 -69.5t53 -78.5t100.5 -34q17 0 39.5 4t44.5 15.5t52 38.5l12 11q9 9 25 11q15 2 25 -9t10 -28q0 -15 -17.5 -32.5t-55.5 -39t-73.5 -28.5t-64.5 -7q-92 0 -155 59t-73.5 124.5t-10.5 94.5q0 23 8 78t56 113.5t98.5 70t73.5 11.5q82 0 142 -58 t68.5 -114.5t10 -67t1.5 -23.5q0 -25 -10.5 -33.5t-40.5 -8.5zM116 294h308l-2 17q-6 41 -17.5 70t-30 51.5t-45.5 35t-58 12.5q-36 0 -68 -17.5t-48 -44t-24.5 -50t-12.5 -51.5zM135 642l110 43q7 3 12.5 4t8.5 2l20 -7l110 -41q22 -8 22 -32q0 -9 -7.5 -23t-30.5 -14 q-6 0 -14 3l-101 42l-104 -42q-4 -2 -14 -2q-9 0 -22 5t-13 29q0 6 5 16.5t18 16.5z" />
<glyph unicode="&#xeb;" horiz-adv-x="531" d="M447 236h-330q0 -25 11.5 -69.5t53 -78.5t100.5 -34q17 0 39.5 4t44.5 15.5t52 38.5l12 11q9 9 25 11q15 2 25 -9t10 -28q0 -15 -17.5 -32.5t-55.5 -39t-73.5 -28.5t-64.5 -7q-92 0 -155 59t-73.5 124.5t-10.5 94.5q0 23 8 78t56 113.5t98.5 70t73.5 11.5q82 0 142 -58 t68.5 -114.5t10 -67t1.5 -23.5q0 -25 -10.5 -33.5t-40.5 -8.5zM116 294h308l-2 17q-6 41 -17.5 70t-30 51.5t-45.5 35t-58 12.5q-36 0 -68 -17.5t-48 -44t-24.5 -50t-12.5 -51.5zM126 623q0 20 14 34t34 14t33 -14t13 -33q0 -20 -13.5 -33.5t-31.5 -13.5q-21 0 -35 13 t-14 33zM311 623q0 20 13 34t33 14q19 0 33.5 -13.5t14.5 -33.5t-14 -33.5t-34 -13.5t-33 13t-13 33z" />
<glyph unicode="&#xec;" horiz-adv-x="185" d="M59 26v481q0 15 10.5 24.5t24.5 9.5t23.5 -9.5t9.5 -24.5v-481q0 -13 -9.5 -24t-24.5 -11q-14 0 -24 11t-10 24zM32 697l144 -56q15 -7 19.5 -16.5t4.5 -17.5q0 -24 -21 -30q-6 -3 -14 -3q-6 0 -14 3l-144 55q-14 6 -19 16t-5 18q0 22 14 27.5t22 5.5q5 0 13 -2z" />
<glyph unicode="&#xed;" horiz-adv-x="185" d="M59 26v481q0 15 10.5 24.5t24.5 9.5t23.5 -9.5t9.5 -24.5v-481q0 -13 -9.5 -24t-24.5 -11q-14 0 -24 11t-10 24zM10 641l144 56q10 2 14 2h9q4 -2 15 -6t11 -27q0 -7 -5 -17.5t-19 -15.5l-144 -56q-8 -3 -15 -3q-6 0 -20 6.5t-14 27.5q0 7 5 17.5t19 15.5z" />
<glyph unicode="&#xee;" horiz-adv-x="185" d="M59 26v481q0 15 10.5 24.5t24.5 9.5t23.5 -9.5t9.5 -24.5v-481q0 -13 -9.5 -24t-24.5 -11q-14 0 -24 11t-10 24zM-38 642l110 43q7 3 12.5 4t8.5 2l20 -7l110 -41q22 -8 22 -32q0 -9 -7.5 -23t-30.5 -14q-6 0 -14 3l-101 42l-104 -42q-4 -2 -14 -2q-9 0 -22 5t-13 29 q0 6 4.5 16.5t18.5 16.5z" />
<glyph unicode="&#xef;" horiz-adv-x="185" d="M59 26v481q0 15 10.5 24.5t24.5 9.5t23.5 -9.5t9.5 -24.5v-481q0 -13 -9.5 -24t-24.5 -11q-14 0 -24 11t-10 24zM-47 623q0 20 14 34t34 14t33 -14t13 -33q0 -20 -13.5 -33.5t-31.5 -13.5q-21 0 -35 13t-14 33zM138 623q0 20 13 34t33 14q19 0 33.5 -13.5t14.5 -33.5 t-14 -33.5t-34 -13.5t-33 13t-13 33z" />
<glyph unicode="&#xf1;" horiz-adv-x="542" d="M69 23v485q0 14 11.5 24.5t23.5 10.5q15 0 24.5 -11.5t9.5 -24.5v-41q33 50 76.5 62t69.5 12q9 0 55.5 -7t90 -60.5t43.5 -137.5v-312q0 -14 -10 -24t-25 -10q-13 0 -23 10t-10 24v317q0 55 -28 85.5t-54.5 41.5t-52.5 11q-52 0 -92.5 -39.5t-40.5 -95.5v-320 q0 -14 -9.5 -23.5t-23.5 -9.5q-15 0 -25 9t-10 24zM165 655l211 -1q15 0 25.5 -10.5t10.5 -24.5t-12 -24.5t-25 -10.5l-209 1q-14 0 -25.5 10.5t-11.5 24.5t10.5 24.5t25.5 10.5z" />
<glyph unicode="&#xf2;" horiz-adv-x="539" d="M40 267l3 45q14 106 77.5 167.5t149.5 61.5q85 0 148.5 -61.5t72 -126t8.5 -87.5q0 -22 -7.5 -78.5t-55 -116t-95 -70.5t-72.5 -11q-86 0 -149.5 62t-76.5 169zM115 267l1 -34q8 -76 39 -120.5t66 -53.5t51 -9q59 0 100.5 47.5t46.5 96t5 58v14.5v12q0 7 -5.5 58 t-46.5 98t-101 47q-15 0 -50 -9t-66 -52.5t-38 -120.5q-2 -8 -2 -17.5v-14.5zM209 697l144 -56q15 -7 19.5 -16.5t4.5 -17.5q0 -24 -21 -30q-6 -3 -14 -3q-6 0 -14 3l-144 55q-13 6 -18.5 16t-5.5 18q0 22 14 27.5t22 5.5q5 0 13 -2z" />
<glyph unicode="&#xf3;" horiz-adv-x="539" d="M40 267l3 45q14 106 77.5 167.5t149.5 61.5q85 0 148.5 -61.5t72 -126t8.5 -87.5q0 -22 -7.5 -78.5t-55 -116t-95 -70.5t-72.5 -11q-86 0 -149.5 62t-76.5 169zM115 267l1 -34q8 -76 39 -120.5t66 -53.5t51 -9q59 0 100.5 47.5t46.5 96t5 58v14.5v12q0 7 -5.5 58 t-46.5 98t-101 47q-15 0 -50 -9t-66 -52.5t-38 -120.5q-2 -8 -2 -17.5v-14.5zM187 641l144 56q10 2 14 2h9q4 -2 15 -6t11 -27q0 -7 -5 -17.5t-19 -15.5l-144 -56q-8 -3 -15 -3q-6 0 -20 6.5t-14 27.5q0 7 5 17.5t19 15.5z" />
<glyph unicode="&#xf4;" horiz-adv-x="539" d="M40 267l3 45q14 106 77.5 167.5t149.5 61.5q85 0 148.5 -61.5t72 -126t8.5 -87.5q0 -22 -7.5 -78.5t-55 -116t-95 -70.5t-72.5 -11q-86 0 -149.5 62t-76.5 169zM115 267l1 -34q8 -76 39 -120.5t66 -53.5t51 -9q59 0 100.5 47.5t46.5 96t5 58v14.5v12q0 7 -5.5 58 t-46.5 98t-101 47q-15 0 -50 -9t-66 -52.5t-38 -120.5q-2 -8 -2 -17.5v-14.5zM139 642l110 43q7 3 12.5 4t8.5 2l20 -7l110 -41q22 -8 22 -32q0 -9 -7.5 -23t-30.5 -14q-6 0 -14 3l-101 42l-104 -42q-4 -2 -14 -2q-9 0 -22 5t-13 29q0 6 5 16.5t18 16.5z" />
<glyph unicode="&#xf5;" horiz-adv-x="539" d="M40 267l3 45q14 106 77.5 167.5t149.5 61.5q85 0 148.5 -61.5t72 -126t8.5 -87.5q0 -22 -7.5 -78.5t-55 -116t-95 -70.5t-72.5 -11q-86 0 -149.5 62t-76.5 169zM115 267l1 -34q8 -76 39 -120.5t66 -53.5t51 -9q59 0 100.5 47.5t46.5 96t5 58v14.5v12q0 7 -5.5 58 t-46.5 98t-101 47q-15 0 -50 -9t-66 -52.5t-38 -120.5q-2 -8 -2 -17.5v-14.5zM163 655l211 -1q15 0 25.5 -10.5t10.5 -24.5t-12 -24.5t-25 -10.5l-209 1q-14 0 -25.5 10.5t-11.5 24.5t10.5 24.5t25.5 10.5z" />
<glyph unicode="&#xf6;" horiz-adv-x="539" d="M40 267l3 45q14 106 77.5 167.5t149.5 61.5q85 0 148.5 -61.5t72 -126t8.5 -87.5q0 -22 -7.5 -78.5t-55 -116t-95 -70.5t-72.5 -11q-86 0 -149.5 62t-76.5 169zM115 267l1 -34q8 -76 39 -120.5t62 -52.5t36.5 -9t18.5 -1q58 0 100 47.5t47 96t5 58v14.5v12q0 7 -5.5 58 t-46.5 98t-101 47q-15 0 -50 -9t-66 -52.5t-38 -120.5q-2 -8 -2 -17.5v-14.5zM131 656q0 19 13.5 32.5t33.5 13.5q19 0 33 -14t14 -33q0 -18 -13.5 -32t-34.5 -14q-19 0 -32.5 13.5t-13.5 33.5zM315 655q0 21 14 33q13 14 34 14q19 0 32 -13.5t13 -33.5t-13.5 -33t-32.5 -13 t-33 13t-14 33z" />
<glyph unicode="&#xf8;" horiz-adv-x="538" d="M44 27l46 59q-50 83 -50 181q0 45 17.5 110.5t76.5 114.5t134 49q63 0 120 -35l21 -14l47 60q9 10 23 12q9 0 19 -6t10 -22q0 -12 -8 -22l-55 -70q39 -58 45.5 -99t7.5 -61.5t1 -22.5q0 -101 -51 -173.5t-102.5 -85t-77.5 -12.5q-83 0 -136 55l-48 -60q-8 -11 -22 -13 q-13 0 -21 8t-8 20q1 14 11 27zM367 438q-37 43 -97 43q-16 0 -50 -8.5t-65 -52t-35 -86.5t-4.5 -55.5t-0.5 -18.5q0 -61 23 -113zM169 93q28 -28 56 -34.5t48 -6.5q90 0 120.5 77t30.5 137q0 20 -3.5 50t-20.5 70z" />
<glyph unicode="&#xf9;" horiz-adv-x="545" d="M69 196v310q0 16 11 25q9 10 23 10q15 0 24 -11q10 -9 10 -24v-311q0 -66 27 -100t64.5 -39t44.5 -5q8 0 71.5 9t63.5 135v311q0 15 10 24q9 11 24 11q14 0 24 -10.5t10 -24.5v-310q0 -99 -52 -152t-151 -53q-100 0 -152 53t-52 152zM212 697l144 -56q15 -7 19.5 -16.5 t4.5 -17.5q0 -24 -21 -30q-6 -3 -14 -3q-6 0 -14 3l-144 55q-13 6 -18.5 16t-5.5 18q0 22 14 27.5t22 5.5q5 0 13 -2z" />
<glyph unicode="&#xfa;" horiz-adv-x="545" d="M69 196v310q0 16 11 25q9 10 23 10q15 0 24 -11q10 -9 10 -24v-311q0 -66 27 -100t64.5 -39t44.5 -5q8 0 71.5 9t63.5 135v311q0 15 10 24q9 11 24 11q14 0 24 -10.5t10 -24.5v-310q0 -99 -52 -152t-151 -53q-100 0 -152 53t-52 152zM190 641l144 56q10 2 14 2h9 q4 -2 15 -6t11 -27q0 -7 -5 -17.5t-19 -15.5l-144 -56q-8 -3 -15 -3q-6 0 -20 6.5t-14 27.5q0 7 5 17.5t19 15.5z" />
<glyph unicode="&#xfb;" horiz-adv-x="545" d="M69 196v310q0 16 11 25q9 10 23 10q15 0 24 -11q10 -9 10 -24v-311q0 -66 27 -100t64.5 -39t44.5 -5q8 0 71.5 9t63.5 135v311q0 15 10 24q9 11 24 11q14 0 24 -10.5t10 -24.5v-310q0 -99 -52 -152t-151 -53q-100 0 -152 53t-52 152zM142 642l110 43q7 3 12.5 4t8.5 2 l20 -7l110 -41q22 -8 22 -32q0 -9 -7.5 -23t-30.5 -14q-6 0 -14 3l-101 42l-104 -42q-4 -2 -14 -2q-9 0 -22 5t-13 29q0 6 5 16.5t18 16.5z" />
<glyph unicode="&#xfc;" horiz-adv-x="545" d="M69 196v310q0 16 11 25q9 10 23 10q15 0 24 -11q10 -9 10 -24v-311q0 -66 27 -100t64.5 -39t44.5 -5q8 0 71.5 9t63.5 135v311q0 15 10 24q9 11 24 11q14 0 24 -10.5t10 -24.5v-310q0 -99 -52 -152t-151 -53q-100 0 -152 53t-52 152zM135 655q0 22 13.5 35t33.5 13 q19 0 32.5 -13.5t13.5 -32.5q0 -18 -14 -33t-32 -15q-19 0 -33 13t-14 33zM317 656q0 18 13.5 32.5t34.5 14.5q19 0 32.5 -13.5t13.5 -32.5q0 -20 -14.5 -34t-32.5 -14q-19 0 -33 14t-14 33z" />
<glyph unicode="&#xff;" horiz-adv-x="422" d="M12 496q-2 6 -2 10q0 6 6 20.5t29 14.5q9 0 18.5 -5t14.5 -20l134 -406l127 402q9 29 34 29q4 0 19.5 -5t15.5 -28q0 -3 -2 -11l-230 -683q-11 -33 -35 -33l-11 2q-23 8 -23 32q0 8 2 12l68 184zM72 623q0 20 14 34t34 14t33 -14t13 -33q0 -20 -13.5 -33.5t-31.5 -13.5 q-21 0 -35 13t-14 33zM257 623q0 20 13 34t33 14q19 0 33.5 -13.5t14.5 -33.5t-14 -33.5t-34 -13.5t-33 13t-13 33z" />
<glyph unicode="&#x131;" horiz-adv-x="185" d="M59 26v481q0 15 10.5 24.5t24.5 9.5t23.5 -9.5t9.5 -24.5v-481q0 -13 -9.5 -24t-24.5 -11q-14 0 -24 11t-10 24z" />
<glyph unicode="&#x152;" horiz-adv-x="932" d="M567 603v81q0 15 10.5 25.5t26.5 10.5h244q14 0 23.5 -9.5t9.5 -22.5t-9.5 -22t-23.5 -9h-214v-266h206q13 0 22.5 -9.5t9.5 -22.5q0 -14 -10.5 -23t-22.5 -9h-207v-265h227q15 0 24 -9.5t9 -21.5q0 -13 -9.5 -22t-23.5 -9h-259q-34 0 -34 34v90q-33 -62 -94.5 -97 t-132.5 -35q-60 0 -115 25t-96.5 73.5t-64.5 118t-23 148.5q0 45 14 126.5t78 153.5t125.5 82.5t85.5 10.5q73 0 133 -34.5t91 -92.5zM114 359q0 -142 63.5 -222t162.5 -80q21 0 76 11.5t104.5 88t49.5 203.5q0 144 -63.5 224t-161.5 80h-18.5t-58 -10t-102.5 -88.5 t-52 -206.5z" />
<glyph unicode="&#x153;" horiz-adv-x="909" d="M459 417l11 19q66 106 178 106q83 0 141.5 -49t78.5 -140l6 -30l1 -10l1 -26q0 -27 -9.5 -36.5t-40.5 -9.5h-328q0 -17 3 -32.5t5.5 -25.5t15 -40.5t53 -57.5t91.5 -27q56 0 89 22.5t52 40t36 14.5q11 -2 19 -12t8 -21q0 -8 -3.5 -15t-12 -16t-28.5 -24t-62.5 -35 t-102.5 -20q-58 0 -108.5 27.5t-81.5 75.5l-11 19l-16 -25q-70 -95 -180 -95q-50 0 -95.5 23.5t-81 75.5t-41 97t-6 57t-0.5 18q0 16 1 31t9.5 61t45 95.5t83.5 68.5t89 19q54 0 101 -26.5t78 -74.5zM113 271l1 -35q5 -51 18.5 -85t46 -67t90.5 -33q82 0 109 49t35 77t8 66 q0 204 -68.5 223t-89.5 19q-57 0 -96 -45t-51 -132zM497 296h306l-1 20q-7 63 -35.5 103t-65 50t-53.5 10q-56 0 -95.5 -42.5t-52.5 -123.5z" />
<glyph unicode="&#x178;" horiz-adv-x="491" d="M70 708l176 -299l176 299q3 7 10 11q13 11 29 8q14 -2 21 -13.5t3 -25.5l-4 -10l-201 -340v-311q0 -25 -13.5 -30.5t-21.5 -5.5q-24 0 -32 22l-2 14v311l-201 340l-4 10q-4 14 3 25.5t22 13.5q15 3 29 -8zM106 810q0 20 14 34t34 14t33 -14t13 -33q0 -20 -13.5 -33.5 t-31.5 -13.5q-21 0 -35 13t-14 33zM291 810q0 20 13 34t33 14q19 0 33.5 -13.5t14.5 -33.5t-14 -33.5t-34 -13.5t-33 13t-13 33z" />
<glyph unicode="&#x192;" horiz-adv-x="340" d="M99 -85l56 554l-51 -1q-11 0 -18 9t-7 22q0 14 10 23t22 9l49 -1l16 146q4 45 33 71.5t72 26.5l43 -1q16 0 25.5 -8t9.5 -21q0 -16 -11.5 -23.5t-23.5 -9.5l-28 1h-5q-26 0 -32.5 -5t-13.5 -26l-4 -40l-11 -111l67 -1q12 0 20 -8.5t8 -21.5t-9.5 -22t-23.5 -9h-68 l-59 -584q-9 -101 -106 -101h-38q-19 0 -29.5 7.5t-10.5 20.5q0 14 13 24.5t41 10.5h11l8 -1q35 0 41 32v6z" />
<glyph unicode="&#x2c6;" horiz-adv-x="302" d="M21 642l110 43q7 3 12.5 4t8.5 2l20 -7l110 -41q22 -8 22 -32q0 -9 -7.5 -23t-30.5 -14q-6 0 -14 3l-101 42l-104 -42q-4 -2 -14 -2q-9 0 -22 5t-13 29q0 6 5 16.5t18 16.5z" />
<glyph unicode="&#x2c7;" horiz-adv-x="301" d="M49 691l105 -43l102 42q8 3 15 3q21 0 28 -13.5t7 -22.5q0 -23 -22 -31l-107 -43q-15 -7 -23 -7q-6 0 -21 6l-110 44q-21 8 -21 33q0 8 2.5 15t12 13t20.5 6q8 0 12 -2z" />
<glyph unicode="&#x2d8;" horiz-adv-x="311" d="M-5 650l1 6q4 13 8 18t14 9.5t18 0.5l13 -9q31 -23 59 -28t46 -5q55 0 91 24l23 16q4 4 13 3q12 -2 25 -20l2 -5l1 -3l1 -9q0 -13 -3 -17t-25 -22t-57.5 -28.5t-72.5 -10.5q-40 0 -76 12t-54.5 28.5t-22.5 23t-4 16.5z" />
<glyph unicode="&#x2da;" horiz-adv-x="226" d="M40 652q0 32 22.5 53.5t50.5 21.5q30 0 51.5 -22.5t21.5 -52.5q0 -31 -21.5 -52t-52.5 -21q-30 0 -51 22.5t-21 50.5zM77 653q0 -14 10 -25t25 -11q16 0 26 10t10 26q0 14 -10.5 24.5t-24.5 10.5q-15 0 -25.5 -10.5t-10.5 -24.5z" />
<glyph unicode="&#x2dc;" horiz-adv-x="281" d="M34 655l211 -1q15 0 25.5 -10.5t10.5 -24.5t-12 -24.5t-25 -10.5l-209 1q-14 0 -25.5 10.5t-11.5 24.5t10.5 24.5t25.5 10.5z" />
<glyph unicode="&#x2013;" d="M57 360h420q9 0 16.5 -7.5t7.5 -17.5q0 -11 -7 -18t-17 -7h-421q-24 0 -24 26q0 10 7 17t18 7z" />
<glyph unicode="&#x2014;" horiz-adv-x="533" d="M50 194v70h433v-70h-433z" />
<glyph unicode="&#x2018;" horiz-adv-x="177" d="M12 582l59 131q11 21 34 21q8 0 21.5 -7t13.5 -30q0 -8 -3 -14l-61 -132q-9 -20 -33 -20q-7 0 -20.5 6.5t-13.5 30.5q0 6 3 14z" />
<glyph unicode="&#x2019;" horiz-adv-x="177" d="M12 582l59 131q11 21 34 21q8 0 21.5 -7t13.5 -30q0 -8 -3 -14l-61 -132q-9 -20 -33 -20q-7 0 -20.5 6.5t-13.5 30.5q0 6 3 14z" />
<glyph unicode="&#x201a;" horiz-adv-x="177" d="M12 -80l59 131q11 21 34 21q8 0 21.5 -7t13.5 -30q0 -8 -3 -14l-61 -132q-9 -20 -33 -20q-7 0 -20.5 6.5t-13.5 30.5q0 6 3 14z" />
<glyph unicode="&#x201c;" horiz-adv-x="309" d="M18 582l59 131q11 21 34 21q8 0 21.5 -7t13.5 -30q0 -8 -3 -14l-61 -132q-9 -20 -33 -20q-7 0 -20.5 6.5t-13.5 30.5q0 6 3 14zM144 582l60 131q10 21 33 21q8 0 21.5 -7t13.5 -30q0 -8 -3 -14l-61 -132q-9 -20 -33 -20q-7 0 -20.5 6.5t-13.5 30.5q0 6 3 14z" />
<glyph unicode="&#x201d;" horiz-adv-x="309" d="M18 582l59 131q11 21 34 21q8 0 21.5 -7t13.5 -30q0 -8 -3 -14l-61 -132q-9 -20 -33 -20q-7 0 -20.5 6.5t-13.5 30.5q0 6 3 14zM144 582l60 131q10 21 33 21q8 0 21.5 -7t13.5 -30q0 -8 -3 -14l-61 -132q-9 -20 -33 -20q-7 0 -20.5 6.5t-13.5 30.5q0 6 3 14z" />
<glyph unicode="&#x201e;" horiz-adv-x="303" d="M12 -80l59 131q11 21 34 21q8 0 21.5 -7t13.5 -30q0 -8 -3 -14l-61 -132q-9 -20 -33 -20q-7 0 -20.5 6.5t-13.5 30.5q0 6 3 14zM138 -80l60 131q10 21 33 21q8 0 21.5 -7t13.5 -29q0 -7 -3 -15l-61 -132q-9 -20 -33 -20q-7 0 -20.5 6.5t-13.5 30.5q0 6 3 14z" />
<glyph unicode="&#x2020;" horiz-adv-x="624" d="M67 470h213v228q0 16 10 26t22 10t22 -10t10 -26v-228h212q15 0 25 -10t10 -26q0 -14 -10.5 -23.5t-24.5 -9.5h-211v-590q0 -15 -9.5 -24.5t-24.5 -9.5q-14 0 -23.5 10t-9.5 24v590h-210q-15 0 -25 9t-10 24q0 14 10 25t24 11z" />
<glyph unicode="&#x2021;" horiz-adv-x="640" d="M74 103l211 1v293h-210q-14 0 -23.5 10.5t-9.5 25.5q0 13 9.5 22.5t22.5 9.5l212 -1l1 227q2 17 11 26t22 9q14 0 23 -11t9 -24l-1 -227h214q14 0 25 -10t11 -23q0 -14 -11 -24t-27 -10h-211v-293l211 1q15 0 26 -8.5t11 -25.5q0 -13 -10 -23t-26 -10l-213 -1v-226 q0 -13 -9 -23.5t-24 -10.5q-12 0 -21.5 9.5t-9.5 24.5l-1 226h-213q-14 0 -23.5 9.5t-9.5 22.5q0 17 11 25q9 9 23 9z" />
<glyph unicode="&#x2022;" horiz-adv-x="370" d="M53 360q0 55 38.5 93.5t93.5 38.5q56 0 94 -39t38 -93q0 -55 -28.5 -83.5t-52.5 -38.5t-51 -10q-55 0 -93.5 38.5t-38.5 93.5z" />
<glyph unicode="&#x2026;" horiz-adv-x="540" d="M42 40q0 20 14 33.5t34 13.5q21 0 34.5 -13.5t13.5 -33.5q0 -21 -13.5 -34.5t-34.5 -13.5q-20 0 -34 14t-14 34zM222 40q0 20 14 33.5t34 13.5q21 0 34.5 -13.5t13.5 -33.5q0 -21 -13.5 -34.5t-34.5 -13.5q-20 0 -34 14t-14 34zM402 40q0 20 14 34t34 14t34 -14t14 -34 t-14 -34t-34 -14t-34 14t-14 34z" />
<glyph unicode="&#x2030;" horiz-adv-x="943" d="M40 561q0 57 20.5 98t52 58.5t63.5 17.5q64 0 97.5 -50t33.5 -124q0 -57 -21.5 -98t-51.5 -57.5t-61 -16.5q-65 0 -99 52.5t-34 119.5zM89 561q0 -43 13 -73t31 -43t39 -13q20 0 36.5 10.5t27.5 31.5t16 44.5t5 48.5q0 49 -15 77t-32 38t-36 10q-20 0 -39 -12 t-32.5 -43.5t-13.5 -75.5zM185 21l232 697q3 10 10.5 14t13.5 4q14 0 21 -15q2 -8 2 -14q0 -3 -2 -9l-233 -696q-3 -9 -10.5 -14t-13.5 -5q-15 0 -18.5 10.5t-3.5 15.5q0 4 2 12zM341 154q0 69 25.5 105.5t54 51t58.5 14.5q64 0 97.5 -48t33.5 -123q0 -81 -38 -126t-97 -45 q-58 0 -96 45.5t-38 125.5zM391 154q0 -45 12.5 -74.5t31.5 -42.5t40 -13q45 0 58 25t15 30t5 17t4.5 27.5t1.5 31.5q0 55 -19 91.5t-65 36.5q-20 0 -39.5 -11.5t-32 -40.5t-12.5 -77zM634 154q0 69 25.5 105.5t54 51t58.5 14.5q64 0 97.5 -48t33.5 -123q0 -81 -38 -126 t-97 -45q-57 0 -95.5 46t-38.5 125zM684 154q0 -45 12.5 -74.5t31.5 -42.5t40 -13q45 0 58 25t15 30t5 17t4.5 27.5t1.5 31.5q0 55 -19 91.5t-65 36.5q-20 0 -39.5 -11.5t-32 -40.5t-12.5 -77z" />
<glyph unicode="&#x2039;" horiz-adv-x="239" d="M49 289l89 157q8 15 24 19q14 5 25 -3t11 -23q0 -13 -6 -24l-91 -150l90 -150q8 -13 8 -23q0 -19 -21 -27q-23 -9 -41 22l-83 150q-14 24 -14 31q0 6 9 21z" />
<glyph unicode="&#x203a;" horiz-adv-x="239" d="M102 442l83 -149q14 -25 14 -32q0 -6 -9 -21l-88 -157q-10 -15 -25 -19q-14 -5 -25 3t-11 23q0 13 6 24l91 150l-90 150q-8 13 -8 23q0 19 21 27q24 9 41 -22z" />
<glyph unicode="&#x2122;" horiz-adv-x="774" d="M75 720h199q23 0 23 -24q0 -9 -7.5 -15.5t-16.5 -6.5h-74v-325q0 -11 -7.5 -18.5t-18.5 -7.5q-9 0 -16.5 7.5t-7.5 18.5v325h-75q-9 0 -15.5 7.5t-6.5 16.5q0 8 7 15t16 7zM290 355l56 339q5 31 36 31t39 -29l83 -286l83 286q9 29 39 29q31 0 36 -31l57 -339v-11 q0 -6 -6 -13.5t-20 -7.5q-3 0 -12.5 3.5t-12.5 20.5l-46 310l-92 -315q-8 -20 -25 -20q-2 0 -11.5 3t-14.5 17l-93 315l-46 -310q-3 -18 -16 -22q-12 -4 -23.5 2t-11.5 17z" />
<glyph unicode="&#x2215;" horiz-adv-x="189" d="M-43 21l234 701q3 11 10.5 14.5t12.5 3.5q14 0 18.5 -9.5t4.5 -18.5q0 -7 -1 -10l-234 -700q-6 -11 -12.5 -15t-12.5 -4q-13 0 -20 15q-2 8 -2 14q0 3 2 9z" />
<glyph unicode="&#x25fc;" horiz-adv-x="540" d="M0 540h540v-540h-540v540z" />
<glyph unicode="&#xf001;" d="M99 100l131 131l-129 129q-8 8 -8 18q0 11 8 18.5t20 7.5q11 0 19 -8l128 -129l128 129q10 8 20 8q26 0 26 -27q0 -11 -8 -19l-128 -129l128 -128q8 -8 8 -19t-8 -18.5t-20 -7.5q-11 0 -19 8l-128 128l-130 -131q-7 -7 -19 -7q-11 0 -18.5 7.5t-7.5 19.5q0 11 7 19z" />
<glyph unicode="&#xf002;" horiz-adv-x="345" d="M59 720h135q14 0 23.5 -10.5t9.5 -27.5v-653q0 -14 -10 -27q-11 -11 -25 -11t-24 10.5t-10 26.5v629h-100q-13 0 -22 9t-9 22q0 32 32 32z" />
</font>
</defs>
</svg>
